<?xml version="1.0" encoding="utf-8"?>
<!-- Generator: Adobe Illustrator 25.2.1, SVG Export Plug-In . SVG Version: 6.00 Build 0)  -->
<svg version="1.1"
	 id="svg855" inkscape:version="1.0.2-2 (e86c870879, 2021-01-15)" xmlns:cc="http://creativecommons.org/ns#" xmlns:dc="http://purl.org/dc/elements/1.1/" xmlns:inkscape="http://www.inkscape.org/namespaces/inkscape" xmlns:rdf="http://www.w3.org/1999/02/22-rdf-syntax-ns#" xmlns:sodipodi="http://sodipodi.sourceforge.net/DTD/sodipodi-0.dtd" xmlns:svg="http://www.w3.org/2000/svg"
	 xmlns="http://www.w3.org/2000/svg" xmlns:xlink="http://www.w3.org/1999/xlink" x="0px" y="0px" viewBox="0 0 595.3 771"
	 style="enable-background:new 0 0 595.3 771;" xml:space="preserve">
<style type="text/css">
	.st0{fill:#FFDCDC;}
	.st1{fill:#FFE680;}
	.st2{fill:#FFCCAA;}
	.st3{fill:#FF5555;}
	.st4{fill:#E5A8C6;}
	.st5{fill:#DCF2FF;}
</style>
<path class="st0" d="M584.5,702.4c-0.4-0.3-0.8-0.7-1-1.1c-1.2-1.9-3.2-3.2-5.4-3.6c0.1-0.4,0.3-0.8,0.3-1.2
	c2.6-11.6,0.7-25.1-2-36.4c-0.1-0.4-0.3-0.8-0.6-1.2c0-1.6-0.2-3.2-0.2-4.5c-0.2-3.8-0.9-7.5-2-11.2c-2.4-7.5-6.6-14.5-7.6-22.4
	c-0.2-1.5-1-2.5-2.1-3.1c-1.7-7.4-3.3-15.3-6.5-22c-2-4.1-5.4-7.2-7.3-11.4c-1.5-3.3-2.5-5.4-5.3-7.8c-3.3-2.8-4.9-7.4-7.5-10.8
	c-2.5-3.3-5.2-6.3-8.3-9c-6.3-5.7-13.4-10.3-20.6-14.9c-1-0.7-2-0.8-2.9-0.5c-0.2-0.3-0.4-0.6-0.7-0.8c-2.2-1-4.4-2.2-6.8-2.7
	c-1.2-0.3-2.5-0.3-3.7,0c-1.1,0.3-2,0.8-3.2,1c-2.5,0.3-5.1,0.2-7.7,0c-2-0.2-4.9-0.1-6.1-2c-0.4-0.6-0.9-0.9-1.5-0.9
	c-0.3-1.9-3.3-2.4-3.9-0.2c-0.5,1.9-1.4,3.7-2.4,5.3c-1.5,1.5-2.8,3.2-4.2,4.8c-1.1,1-2.4,2-3.6,2.8c-2.5,1.7-5.2,3.3-7.9,4.6
	c-2.5,1.3-5.7,2.5-8.5,1.2c-0.4-0.2-0.8-0.3-1.3-0.2c-0.4-0.3-0.8-0.5-1.3-0.5c-1,0-1.8,0.8-2,1.8c-0.1,0.1-0.1,0.2-0.2,0.3
	c-0.2,0.3-0.4,0.5-0.6,0.8c-0.4,0.6-0.8,1.1-1.2,1.7c-0.3,0.5-0.7,1-1,1.4c0,0-0.1,0.2-0.2,0.2c-0.1,0.1-0.2,0.2-0.3,0.4
	c-0.2,0.2-0.4,0.4-0.6,0.6c-0.1,0.1-0.2,0.2-0.3,0.3c0,0-0.1,0.1-0.2,0.1c-0.2,0.1-0.4,0.3-0.6,0.4c-0.1,0.1-0.2,0.1-0.3,0.2
	c0,0,0,0,0,0c0,0-0.1,0-0.1,0c-0.3,0.1-0.5,0.2-0.8,0.2c0,0-0.1,0-0.2,0c-0.1,0-0.3,0-0.3,0c-0.3,0-0.5,0-0.8,0c0,0-0.1,0-0.2,0
	c-0.1,0-0.2,0-0.3-0.1c-0.3-0.1-0.6-0.2-0.9-0.3c-0.2-0.1-0.4-0.1-0.6-0.1c-0.6-0.7-1.8-1.1-2.6-0.5c-1.9,1.4-3.8,2.9-5.6,4.3
	c-0.3,0.2-0.5,0.4-0.8,0.5c-1.1,0.2-2.2,0.5-3.2,1c-0.9,0.5-1.8,1.1-2.7,1.6c-2.1,0.5-4.2,1-6.2,1.4c-1.1,0.2-2.2,0.4-3.3,0.7
	c-0.2,0-0.4,0.1-0.6,0.2c-0.8,0-1.7-0.1-2.5-0.2c-0.2,0-0.5,0-0.7,0c-0.5-0.3-1.2-0.5-1.7-0.3c-1.1,0.4-1.6,1.3-1.4,2.5
	c0-0.2,0-0.1,0,0.1c0,0.1,0,0.3,0,0.4c0,0.3,0,0.6,0,0.9c0,0.6,0,0.7-0.2,1.3c-0.2,1.1-0.5,2-1,2.8c-0.5,0.9-1,1.8-1.6,2.7
	c-0.2,0.2-0.3,0.5-0.5,0.7c-0.2,0.3,0,0-0.2,0.3c-0.3,0.4-0.6,0.7-0.9,1.1c-1.1-0.1-2.2,0.5-2.3,1.9c0,0.5-0.1,0.9-0.2,1.4
	c-1.1,2.8-2.2,5.6-3.3,8.4c-1,1.8-2.2,3.5-3.4,5.1c-0.5,0.5-1,1.1-1.5,1.7c-0.4,0.2-0.8,0.4-1.2,0.5c-0.8,0.3-1.6,0.6-2.1,1.4
	c-0.1,0.1-0.1,0.2-0.1,0.3c-0.3,0-0.6,0.1-0.9,0.3c-0.9,0.5-1.3,1.9-0.7,2.7c1.9,2.6,2.7,5.7,3,8.9c0.3,3.1,0.7,7-0.9,9.8
	c-1.2,2.3,2.2,4.3,3.5,2c1.8-3.3,5.5-4.9,7.2-8.2c1.9-0.4,3.3-1.8,4.8-3.3c3.5-3.6,7-7.2,10.5-10.8c13.2-13.5,26.1-28.1,42.3-38.2
	c0.6-0.4,1-0.8,1.3-1.3c2.8-1.4,5.7-2.7,8.5-4.1c0.2-0.1,0.4-0.2,0.6-0.3c0.1,0,0.3,0,0.4,0c2.4,0.1,4.7-1.2,7-1.8
	c3.5-0.9,7.1-1.3,10.7-1.2c2.9,0.1,5.1,1.2,7.9,1.9c2.8,0.7,5.6,0.8,8.4,1.8c0.5,0.2,1,0.2,1.4,0.2c0.3,0.3,0.7,0.6,1.1,0.8
	c12.3,5.9,23.1,15.8,30.6,27.2c7.6,11.6,12.6,27,4.8,39.6c-0.2,0.4-0.4,0.7-0.5,1c-0.5,0.6-0.8,1.2-0.9,1.9c-0.1,0-0.3,0.1-0.4,0.1
	c-1,0.3-1.7,1.4-1.4,2.5c0.1,0.5,0.5,1,1,1.2c-1.5,0.9-2.9,2-4.3,3c-3.1,2.4-6.3,4.5-10.1,5.9c-2,0.7-3.9,1.3-5.9,1.9
	c-1,0.3-1.9,0.6-2.9,0.6c-1.1-0.1-2-0.2-3.1,0.1c-2,0.6-3.6,2.3-5.1,3.5c-1.7,1.5-3.5,2.9-5.2,4.4c-1.2,1-0.6,2.5,0.5,3.1
	c-0.8,0.1-1.6,0.3-2.4,0.5c-0.5-0.9-1.6-1.6-2.7-0.8c-5.8,3.7-11.6,7.5-17.3,11.2c-2.9,1.9-5.7,3.7-8.6,5.6c-1,0.6-2.1,1.3-2.8,2.2
	c-0.5,0-1,0.1-1.4,0.6c-0.3,0.3-0.5,0.6-0.7,1c-0.7-0.2-1.3,0-1.9,0.5c-1.3,1-2.6,2.1-3.9,3.1c-1.2,0.9-2.6,1.8-3.4,3.1
	c-0.1,0.2-0.2,0.3-0.3,0.5c-0.5,0.3-0.9,0.8-1.1,1.3c-0.3,1.1,0.4,2.1,1.4,2.5c0.2,0.1,0.3,0.2,0.5,0.3c0.8,1,1.8,1.9,2.6,2.7
	c0.4,0.4,0.7,0.8,1.1,1.3c0.6,1.1,1.2,2.2,1.7,3.2c1.5,3.1,3,6.5,2.7,10c-0.3,0.2-0.5,0.6-0.6,1c-1,4.2-3.7,7.7-7.6,9.6
	c-0.6,0.3-0.9,0.9-1,1.4c-1.5,0.7-1.3,2.8-0.1,3.5c0.1,0.6,0.4,1.2,0.9,1.4c3.5,1.7,6.5,4.1,9.7,6.3c1.5,1.1,3.1,2.1,4.8,2.9
	c1.7,0.9,3.4,1.5,5.1,2.5c4.7,2.7,8.3,6.8,12,10.7c0.6,0.9,1.3,1.7,2.1,2.4c0.8,1.7,2.1,3.1,3.3,4.8c-1-0.2-2-0.2-3.1-0.2
	c-1.7,0-3.4-0.5-4.8-1.5c-0.1-0.2-0.3-0.3-0.4-0.5c-1-1-2.1-1.9-2.8-3.1c-0.2-0.3-0.5-0.5-0.7-0.6c-2-2.7-4.6-4.9-7.6-6.6
	c-1.7-0.9-3.2,1.7-1.5,2.6c1.9,1,3.6,2.3,5.1,3.9c0,0.1,0,0.2,0,0.3c0.5,2.7,2.9,3.9,4.5,5.8c1.2,1.3,1.7,3,2.8,4.3
	c-0.1,0.8,0.4,1.7,1.4,1.8c3.9,0.5,7.9,1.1,11.9,0.7c0.5,0.8,0.9,1.6,1.4,2.4c1.5,2.7,5,4.3,8,3.6c4.3,1.2,8.6-2.7,9.1-7
	c0.2-0.1,0.5-0.2,0.7-0.3c2.7-1.4,4.2-1.7,6.3-1.5c-0.1,0.7-0.1,1.3,0.3,2c0.8,1.3,2.7,2,4.1,1.1c0.8-0.5,1.6-0.8,2.4-1.3
	c0.6-0.4,1.1-0.9,1.6-1.4c1.4-0.3,2.7-0.9,3.9-1.7c1.9-1.3,2.9-3.1,3.3-5c1.9-0.8,3.4-2.3,4.2-4.2c0.7-0.2,1.3-0.4,1.9-0.8
	c0.5-0.6,1-0.9,1.7-0.8c1-0.1,2-0.3,2.8-0.7c2.5,0.7,5.1-0.4,6.9-2c0,0,0,0,0,0.1c2.2-0.6,3.8-2.1,4.7-3.9c1.4-0.7,2.6-1.9,3.5-3
	c2.2-3,4.6-5.8,7.2-8.5c1.2,0.4,2.6,0.4,4.2-0.3c8.6-3.5,20.7-6.6,20.4-18.1C589.9,706,587.6,703.8,584.5,702.4z"/>
<path class="st1" d="M523,586.1c-9.6-13.2-23-24.5-39.6-27c-16.4-2.5-30.6,5-42.6,15.5c-6.5,5.6-12.4,11.9-18.5,18
	c-3.6,3.6-7.3,7.2-10.8,10.8c-1.9,2-3.5,3.7-4.5,5.9c-0.5,0.6-1,1.1-1.6,1.6c-0.2,0.2-0.4,0.3-0.6,0.5c-0.1,0.1-0.2,0.2-0.3,0.2
	c-0.2,0.1-0.4,0.3-0.6,0.4c-0.2,0.2-0.5,0.3-0.7,0.5c-0.9,0.6-1.9,1.1-2.9,1.5c-0.5,0.2-1,1-1.1,1.5c-0.1,0.3-0.1,0.6-0.1,0.9
	c-2.9,2-5.8,3.9-8.7,5.9c-2.6,1.8-0.1,6.1,2.5,4.3c0.7-0.5,1.5-1,2.2-1.5c0.2,0.1,0.5,0.1,0.7,0.1c6.6-0.4,13.5-0.8,19.8,1.3
	c4.6,1.5,9.1,4.7,10.8,9.4c0.7,1.9,3.4,2.6,4.6,0.6c3.4-6.1,9.1-10.4,14.7-14.4c6.3-4.5,12.4-9.1,17.8-14.7c2-2.1,3.9-4.3,5.7-6.5
	c0.5,1.5,0.9,3,1.4,4.5c0.5,1.5,0.9,2.9,1.4,4.4c0.2,0.8,0.5,1.6,0.7,2.3c0.1,0.3,0.2,0.6,0.3,0.8c-0.7,1.1-0.5,2.2,0.2,3.2
	c0.4,0.4,0.8,0.7,1.2,0.8c2.2,1.4,4.3,3,6.2,4.8c1,1,2,2,2.9,3.1c1,1.2,1.9,2.3,3.3,3c1,0.5,2.2,0.6,3.1,1.4
	c0.8,0.7,1.5,1.7,2.1,2.5c1.6,2.2,3.2,3.9,5.8,4.8c1,0.3,2,0.5,3,0.8c0.4,0.1,0.8,0.2,1,0.4c0.2,0.1,0.3,0.2,0.5,0.3
	c-0.2-0.1,0.1,0.1,0.1,0.1c0,0.1,0,0.5-0.1,0.8c-0.2,0.7-0.5,1.4-0.8,2.1c-0.4,1.3-0.5,2.7-0.1,4c0.4,1.4,1.4,2.5,2.8,3
	c1.8,0.6,3.5-0.1,5.2-0.7c3.1-1,6.2-1.9,9.2-3.1c2.8-1.1,4.8-2.8,6.1-5.6c0.5-1.2,0.8-2.1,1.4-3.2c0.2-0.5,0.5-0.9,0.7-1
	c0.2-0.2,0.3-0.3,0.7-0.4c1-0.3,1.6-1,1.7-1.9c0.8-0.3,1.5-0.9,2.1-1.8C540.2,616.1,531.8,598.1,523,586.1z"/>
<g>
	<path class="st2" d="M495.7,654.4C495.7,654.4,495.7,654.4,495.7,654.4C495.7,654.4,495.7,654.4,495.7,654.4
		C495.7,654.4,495.7,654.4,495.7,654.4z"/>
	<path class="st2" d="M502.5,645.7c0.2,0-0.2-0.2-0.3-0.3c-0.2-0.2-0.3-0.5-0.3-0.8c-0.1-0.8,0.3-1.7,0.7-2.3c0.8-1.6,2.2-3.5,1-5.3
		c-1.2-1.9-4.1-1.1-6-1.4c-0.9-0.1-1.9-0.3-2.7-0.6c-0.8-0.4-1.1-1-1.4-1.8c-0.7-1.9-1.8-3.4-3.5-4.6c-1.5-1.1-3.5-1.5-4.9-2.6
		c-0.7-0.5-1-1.4-1.5-2.1c-0.6-0.8-1.2-1.7-1.9-2.4c-1.3-1.4-2.9-2.7-4.6-3.7c-1.9-1.1-3.5-2.2-4.4-4.3c-1-2.3-1.1-4.8-1.2-7.3
		c0-0.6-0.3-1.1-0.6-1.4c0.1-0.1,0.1-0.2,0.2-0.3c1.3-2.2-2.2-4.3-3.5-2c-1.5,2.6-3.2,5-5.2,7.2c-1.7,1.9-3.9,3.5-5.1,5.8
		c-3,1-5.4,3.3-7.8,5.5c-0.1,0-0.2,0.1-0.3,0.1c-2.1,1.4-4.1,2.8-6.2,4.2c-0.4,0.2-0.8,0.5-1.3,0.7c-1.3,0.8-2.6,1.8-3.8,2.8
		c0,0-0.1,0.1-0.1,0.1c-1.7,1.3-3.2,2.6-4.5,4.2c-1.2,1.6-2.4,3.2-4,4.5c-0.9,0.7-0.7,2.1,0,2.8c2.2,2.3,1.9,6.5,2,9.4
		c0.1,4.1-0.1,8.1-0.1,12.2c0.1,3.1,0.8,5.9,2.7,8.2c0.2,2.8,2.4,5,4.9,6.1c1.3,0.6,2.7,0.8,4.1,1.1c0.2,0.2,0.4,0.4,0.6,0.6
		c1.4,1.1,3.2,1.5,4.9,1.3c0.3,0.2,0.7,0.3,1,0.3c1.3-0.1,2.6-0.4,3.8-0.7c0.4,0.1,0.8,0,1.2-0.2c0.2-0.1,0.3-0.2,0.5-0.2
		c3.2-1,6.2-2.5,8.9-4.5c1.3-0.6,2.5-1.3,3.7-2c2-1.1,3.8-2.3,5.5-3.7c1.5-1.2,3.1-2.5,4.9-3.2c0.5-0.2,1-0.6,1.2-1
		c0.5,0,0.9-0.2,1.2-0.6c0.1,0,0.2-0.1,0.3-0.1c0.2-0.1,0.3-0.2,0.5-0.3c0.5-0.1,0.8-0.4,1.1-0.7c1.1-0.5,2.2-1,3.4-1.5
		c0.4-0.2,0.7-0.4,1.1-0.6c0.5,0,1-0.2,1.3-0.6c0.4-0.4,0.7-0.8,1.1-1.2c0.2-0.2,0.3-0.4,0.4-0.7c0.3,0.1,0.7,0.1,1.1,0
		c0.3-0.1,0.5-0.2,0.8-0.4c0.4,0,0.8,0,1.2-0.3c0.9-0.6,1.7-1.5,2.2-2.5c0,0.1-0.1,0.1-0.1,0.2c0,0,0.1-0.1,0.1-0.2
		c0.1-0.1,0.1-0.1,0.2-0.2c0,0,0.2-0.1,0.3-0.2c-0.1,0.1-0.2,0.1,0,0c0,0,0,0,0,0c0,0,0,0,0,0c0,0,0,0,0,0c0.5-0.4,1-0.7,1.5-1.1
		c0.8-0.7,1.4-1.6,2.2-2.2c0,0,0.1-0.1,0.2-0.2c0,0,0,0,0.1,0c0.2-0.1,0.4-0.3,0.6-0.4c0.2-0.1,0.4-0.2,0.6-0.4
		c0.1-0.1,0.2-0.1,0.3-0.2c0.1-0.1,0.5-0.2,0.1,0c0.2-0.1,0.3-0.2,0.5-0.2c0.2,0.1,0.4,0.1,0.7,0.1c1.1,0.1,2-1,2-2
		C504.5,646.5,503.6,645.8,502.5,645.7z"/>
</g>
<path class="st3" d="M441.6,712.7c-0.5,2.2-1.5,2.7-2.9,1.4c-0.6-0.6-0.5-1.2,0.3-2.8c0.8-1.5,0.9-3.1,0.6-6.2
	c-0.5-5.1-2-8.3-6.6-14c-5.6-7-5.6-10.2,0-4.4c4,4.2,6.4,7.8,7.8,12C442,702.1,442.4,709.3,441.6,712.7z"/>
<path class="st3" d="M455.6,705.9c-0.3,4-2.5,10.3-3.6,10.3c-0.3,0-0.5-3.3-0.5-7.4c0-6.8-0.1-7.7-1.8-10.9c-1-1.9-2-3.5-2.1-3.5
	c-0.2,0,0.5,1.9,1.5,4.1c2.3,5.5,2.5,13.8,0.3,18.5c-0.8,1.7-1.8,3.1-2.3,3.1c-0.5,0-1.9-0.9-3.1-1.9l-2.2-1.8l0.7-3.5
	c2.1-9.9-0.8-19.8-7.8-26.1c-7.4-6.6-7.1-6-4.9-13.3c1.4-4.6,2.2-5.1,2.2-1.6c0,3.8,2.8,8.4,6.7,10.8c1.6,1,3.6,2.8,4.5,4
	c0.9,1.2,2,2.2,2.5,2.2c1.6,0,6.4,5.2,8.3,8.9C455.7,701.3,455.9,702.3,455.6,705.9z"/>
<path class="st3" d="M438.3,711.2c-0.5,1.3-1,2.3-1.1,2.2c-0.1,0-2.1-1.1-4.5-2.4c-3.4-1.8-4.3-2.6-4.2-3.7
	c0.1-1.9-1.6-8.9-2.7-10.6c-0.5-0.8-1.2-2.5-1.7-3.9c-0.6-2.1-0.6-2.7,0.3-4c1-1.5,2.7-6.3,2.5-7.3c-0.1-0.3,0.1-0.5,0.5-0.5
	c0.3,0,0.8,1.4,1,3c0.3,1.8,1.2,3.8,2.2,5.1C438.3,698.4,440.7,705.4,438.3,711.2z"/>
<path class="st3" d="M426,704.3c0,3-0.7,3.6-4.7,4.2c-1.7,0.2-6.8,1.3-11.2,2.4c-4.5,1.1-10.5,2.4-13.4,3c-2.9,0.5-7.4,1.3-10.1,1.9
	c-2.6,0.5-4.8,0.7-4.8,0.3c0-0.3,0.4-0.8,0.9-1c0.5-0.2,2.4-2.3,4.1-4.8c1.8-2.4,4.5-5.6,6.1-7.1c2.5-2.3,3.5-2.8,6.9-3.3
	c2.2-0.3,5.5-0.5,7.4-0.4c4.3,0.2,11.5-2.5,13.9-5.4c0.9-1.1,1.8-1.9,1.9-1.7C423.8,693.4,426,702.3,426,704.3z"/>
<path class="st3" d="M428.7,652.5c0,6.4-0.4,8.7-3,19.4c-3.6,14.5-4,15.5-7.4,19.1c-2.4,2.6-3.2,3-8.2,4.1c-3.1,0.7-7,1.4-8.8,1.6
	l-3.3,0.4l-2.3-4.1c-5.4-9.6-18.7-17.8-31.6-19.4c-1.2-0.1-2.4-0.5-2.7-0.8c-0.2-0.3-0.9-3.3-1.4-6.8c-2.3-15.7,0-22.2,10.3-28.3
	c11.6-6.8,21.9-10.6,29.6-10.8c14.6-0.3,23.6,4.4,27.3,14.1C428.5,644.5,428.8,646.5,428.7,652.5z"/>
<path class="st3" d="M396.3,697.9c-0.1,0.1-1.1,0.8-2.2,1.5l-2,1.4l-1.2-2.5c-1.8-3.7-4.6-6.9-9.7-10.9c-5.6-4.5-11.8-7.3-18-8.3
	c-2.6-0.4-4.8-0.8-4.9-0.9c-0.1-0.1,0.4-0.8,1-1.6c1.1-1.3,1.5-1.3,4.8-0.8c9.8,1.7,17.6,5.5,24.4,11.8
	C392.5,691.3,397,697.4,396.3,697.9z"/>
<sodipodi:namedview  bordercolor="#666666" borderopacity="1.0" id="base" inkscape:current-layer="layer1" inkscape:cx="479.52175" inkscape:cy="598.87142" inkscape:document-rotation="0" inkscape:document-units="mm" inkscape:pageopacity="0.0" inkscape:pageshadow="2" inkscape:window-height="2080" inkscape:window-maximized="1" inkscape:window-width="3840" inkscape:window-x="-11" inkscape:window-y="-11" inkscape:zoom="1.4" pagecolor="#ffffff" showgrid="false">
	</sodipodi:namedview>
<path d="M437.1,605c-0.8,1.2-3.2,4.4-5.3,7.2c-3.4,4.5-9.6,15-9.7,16.4c0,1.2,0.7,0.2,3.3-4.6c4.8-8.9,14.9-21.7,24.1-30.5
	c2.8-2.7,6.2-6,7.5-7.2c1.3-1.3,3.2-2.9,4.2-3.7c1-0.8,1.7-1.6,1.4-1.8c-0.3-0.2-2.3,1.2-4.5,3C452.9,588.1,438.9,602.2,437.1,605z"
	/>
<path d="M404.1,523.7c-1.8-2.6-3.7-3.5-7-3.5c-4.6,0-7.2,1.2-10.2,4.7c-3.7,4.3-5.1,9.2-3.5,12.3c1.3,2.5,6,6.6,7.9,7
	c3.2,0.6,4,0.3,7.7-3.3C405.5,534.7,407.3,528.4,404.1,523.7z M402.4,532.9c-1.3,3-5.7,7.4-8.4,8.4c-2.3,0.9-3.2,0.7-5.9-1.3
	c-4-2.9-3.8-7.5,0.7-13.5c2.8-3.8,3.3-4.1,7.5-4.2c4.5-0.1,5.8,0.9,6.8,5.2C403.5,529.6,403.4,530.7,402.4,532.9z"/>
<path d="M461,576.8c0-0.4-0.4-0.3-1,0.1c-0.5,0.5-1,0.9-1,1c0,0.1,0.5,0.1,1-0.1C460.6,577.6,461,577.2,461,576.8z"/>
<path d="M441.7,613.7c2.3-2.8,4.1-5.5,4-5.9c-0.1-0.4-2.5,1.8-5.2,5c-4.4,5-9,12.5-11,17.8c-1,2.7-0.2,2.1,1.1-0.7
	c1-2.2,2-3.9,5.9-9.4C437,619.6,439.4,616.5,441.7,613.7z"/>
<path d="M500.6,619.6c0,1.4-6.5,8.2-9.5,9.9c-1.4,0.8-1.3,0.8,0.6,0.8c2.5,0,4.9-1.7,7.7-5.8c6.4-9.2,8.3-15.4,7.1-23.1
	c-1.1-7.4-2.2-7.7-1.7-0.4c0.5,6.6-0.7,13-3,16.2C501.2,618.2,500.6,619.3,500.6,619.6z"/>
<path d="M363.8,668.2c0.7,0.7,1.6,0.5,5.2-1.2c8.1-3.8,26.6-3.9,35.5-0.1c0.7,0.3,1.2,0.2,1.2-0.2c0-0.4-2.3-1.4-5.1-2.3
	c-13.2-4.3-24.6-4.1-33.8,0.6C363.5,666.7,362.9,667.3,363.8,668.2z"/>
<path d="M486.2,624.7c-0.4,0.2-1,1-1.4,1.7c-0.6,1.1-0.5,1.3,0.5,1.3c1.4,0,6.6-6.9,7.9-10.5c2.6-7.2,3.6-12,3.7-17.9
	c0.1-4.9-0.2-6.6-1-7.8c-1.1-1.5-1.1-1.4-0.8,2.3c0.7,8.2-2.1,20.7-6.1,27C487.8,622.8,486.5,624.5,486.2,624.7z"/>
<path d="M384.6,669.1c-5.4-1.9-11.6-2.2-15-0.8c-1.8,0.8-1.5,0.9,4.4,1.3c7.3,0.5,11.6,1.9,15.8,5.2c2.9,2.2,14.5,14,15,15.2
	c0.1,0.3,0.5,0.6,0.8,0.6c1,0,0.7-0.4-7.8-11.6C394.2,673.9,390.4,671.1,384.6,669.1z"/>
<path d="M470.9,659.1c-0.4-0.2-0.7,0.4-0.7,1.6c0,2.5-1,3.1-2.5,1.5c-0.7-0.7-2.2-2.3-3.3-3.7c-1.2-1.3-2.8-2.4-3.5-2.4
	c-2.4,0-3.9-1.2-3.9-3.2c0-1.3-1.1-3.1-4-6.3c-2.2-2.5-4-4.7-4-5s-0.4-0.6-1-0.6c-0.8,0-0.8,0.4-0.3,1.8c0.4,1.1,0.5,4.2,0.2,7.9
	c-0.4,5.5-0.3,6.3,0.9,8.3c3,5,9.4,7.2,14,4.9c1.6-0.8,2.4-0.9,3.7-0.3c0.9,0.4,1.6,1.2,1.5,1.8c-0.1,0.6-0.1,1.3,0,1.6
	c0.1,0.6,2-0.7,2.9-1.9C471.8,664.1,471.7,659.6,470.9,659.1z M461.7,662.1c-1.4,0.9-5.2,0.8-7.6-0.3c-3.4-1.5-4.9-4-4.9-8.2
	c0-4.2,0.9-6.6,1.7-4.3c2.4,7.2,6.8,12.2,10.8,12.2C462.5,661.4,462.5,661.5,461.7,662.1z M465.2,661.4c-0.9-0.1-6.4-2.2-8-3.1
	c-1.5-0.9-6.4-9.9-5.7-10.6c0.7-0.7,4.2,3.9,4.2,5.4c0,2.5,1.8,4.2,5.3,5.2c1.9,0.5,3.6,1.4,4,2
	C465.4,660.9,465.5,661.4,465.2,661.4z"/>
<path class="st4" d="M465.2,661.4c-0.9-0.1-6.4-2.2-8-3.1c-1.5-0.9-6.4-9.9-5.7-10.6c0.7-0.7,4.2,3.9,4.2,5.4c0,2.5,1.8,4.2,5.3,5.2
	c1.9,0.5,3.6,1.4,4,2C465.4,660.9,465.5,661.4,465.2,661.4z"/>
<path class="st4" d="M461.7,662.1c-1.4,0.9-5.2,0.8-7.6-0.3c-3.4-1.5-4.9-4-4.9-8.2c0-4.2,0.9-6.6,1.7-4.3
	c2.4,7.2,6.8,12.2,10.8,12.2C462.5,661.4,462.5,661.5,461.7,662.1z"/>
<path d="M474,592.8c0.2-0.9,1.9-4,3.8-6.9c1.9-2.9,3.8-6,4.2-6.8c1.3-2.5-0.4-1.7-2.4,1c-1,1.4-2.2,2.9-2.6,3.5
	c-2.7,3.1-6.1,10-6.1,12.2c0,1.3-4.6,7.9-8.4,12c-3.4,3.7-15.7,14.1-16.7,14.1c-0.3,0-2.4,1.3-4.7,2.8c-3.8,2.6-10.5,9.7-10.5,11.1
	c0,1,0.2,0.8,4.7-3.5c3.7-3.6,16.3-13,17.5-13c0.2,0,0.9-0.7,1.6-1.5l1.2-1.5l0.5,2.2c0.3,1.4,0.2,2.4-0.3,2.7
	c-0.8,0.5,0,1.5,1.9,2.2c0.8,0.3,0.8,0.4-0.2,0.4c-1.2,0.1-1.7,1.4-0.5,1.4c0.4,0,0.7,0.4,0.7,0.9c0,1,1.4,1.7,3.5,1.7
	c1.4,0,1.4,0,0.1,1c-1.3,1-1.3,1,0.2,1.4c0.8,0.2,1.5,0.7,1.5,1c0,0.3,0.3,0.4,0.7,0.2c0.4-0.2,1.2,0.2,1.7,1
	c0.5,0.8,1.5,1.4,2.1,1.4c1,0,1-0.1-0.1-1c-1-0.8-1.1-1.1-0.4-2c0.5-0.6,1.2-1,1.7-1c1.5,0,6.3-4.9,6.9-7.1c0.8-2.7-0.2-2.8-1.3-0.1
	c-0.5,1.1-2.1,3.1-3.7,4.3c-3.2,2.6-3,2.7-7.6-2c-1.4-1.4-2.5-2.9-2.5-3.3c0-0.4-0.5-1.3-1.2-2c-2.7-2.9-2.5-3.4,3.8-9.9
	c3.3-3.4,6-6.5,6-7c0-0.6,0.2-0.6,0.6,0.1c0.4,0.5,0.7,2.2,0.7,3.8c0,3,1.6,7.8,3.1,9.4c1.2,1.2,1.1,0.2-0.1-3.3
	c-1.1-3.2-1.3-11.6-0.3-15.5C473.3,595.6,473.8,593.7,474,592.8z"/>
<path d="M589.4,704.8c-2.5-3-6.8-6.4-8.2-6.4c-0.5,0-0.7-2.1-0.6-6.8c0.2-9.5-0.7-22.9-2.2-34.7c-1.9-14.6-3.6-21.9-8.4-35.5
	c-0.9-2.5-2-6-2.5-7.6c-0.5-1.6-1.9-5.3-3.3-8.2c-2.4-5.2-3.2-6.8-7.3-14.5c-1.2-2.2-2.3-4.6-2.5-5.3c-0.5-1.7-5.4-10.4-8-14.2
	c-3.4-5-8.9-11-12.9-13.9c-2.1-1.6-4.1-3.1-4.4-3.5s-2.1-1.9-4-3.3c-1.8-1.4-3.5-2.8-3.6-3c-2-2.2-15.2-9.1-18.4-9.6
	c-1.5-0.2-3.2-0.8-3.9-1.3c-1.1-0.8-1.1-0.9,0.3-1.9c0.8-0.6,1.5-1.3,1.5-1.7c0-0.3,0.7-1.4,1.6-2.4c1.5-1.7,1.9-1.7,4.8-1.2
	c4.3,0.8,11.4,0,17.6-2c5-1.6,10.9-4.8,11-5.8c0-0.3,0.4-0.5,0.8-0.5c2.7,0,13.1-14.8,14.7-20.9c1.5-5.5,2-15.8,1-19.7
	c-1.1-4.5-5.7-12.1-9.1-15.1c-2.2-2-4-2.8-8.3-3.9c-5.4-1.4-5.5-1.5-4.9-3c1.2-3,1.3-6.5,0.3-8.6l-1-2l6.1-2.9
	c4.5-2.1,6.8-3.7,9-6.1c1.6-1.8,3.3-3.4,3.7-3.5c1.4-0.5,6.2-11.2,7.2-15.9c0.9-4.4,0.9-5.2-0.3-11.4c-1.8-9-3.8-13-10.3-19.6
	c-0.6-0.6-2.4-1.3-4-1.6c-3.4-0.5-3.7-1.3-0.7-1.9c1.2-0.2,3.6-1.5,5.5-2.9c1.8-1.4,4.1-3,5.1-3.6c4.6-3,12.6-17.3,15.4-27.7
	c2.4-9.2,2.1-21.6-0.7-28c-3.6-8.1-4.5-9.5-8.1-12.6c-4-3.5-6.3-4.7-9-4.7c-2,0-2.1-0.9,0-1.8c2.3-1,7.9-7.7,10.9-12.9
	c3.2-5.4,5-11.6,6.2-21.3c1.2-8.9,1.2-11.7,0.4-15.2c-1.8-7.1-4.6-11.3-8.9-13.5c-3-1.5-3.6-2.3-2.3-3c1-0.6,0.8-4.9-0.4-6.9
	c-0.7-1.1-1.9-2-3.1-2.3l-2-0.4l1.7-1.8c2-2.1,3.1-6.2,3.1-11.7c0-4.8-1.7-8.9-4.9-12l-2.3-2.2l2.7-2.7c3.3-3.3,6-9.2,6-13
	c0-2.4,0.2-3,1.7-3.8c9.3-5.1,13.2-19,7.6-27.4c-1.3-2-3.5-3.6-6.7-5c-0.1,0,0.2-2,0.6-4.3c1-5.4,0.4-8.5-2.1-11.4
	c-2.4-2.7-2.4-3.1-0.3-6.2c0.9-1.3,1.7-2.7,1.7-2.9c0-0.5,1.6-4.3,3.6-8.8c0.5-1.1,1.7-4.4,2.6-7.2c4.7-15,6-23.7,5.5-36
	c-0.4-9-0.5-10.5-1.4-15.8c-1.8-10.6-8.9-26.3-15.1-32.9c-5-5.3-15.4-11.2-22.3-12.5c-9.8-1.9-18.8-1.3-25.5,1.6
	c-2.9,1.3-4.1,1.5-5.4,1c-5-1.9-25.6-2.9-30.1-1.4c-1.1,0.3-4.1,1.2-6.7,2c-3.8,1.1-5.8,2.2-9,5c-4.1,3.5-4.2,3.5-5.7,2.4
	c-1.2-0.9-2.8-1.1-7.2-1c-14.9,0.3-24.3,4.3-30.6,13c-0.8,1.1-1.5,1.2-6.9,0.8c-5.9-0.4-7.9-0.1-14.8,2.6c-0.9,0.4-1.1,0.1-1.1-1.5
	c0-2.7-3-6.4-6.9-8.4c-2.7-1.4-4.2-1.7-8.1-1.7c-2.8,0-5.8,0.4-7.2,1c-2.3,1-2.4,0.9-4.4-0.7c-1.1-0.9-3.7-2.5-5.7-3.5
	c-3.2-1.5-4.5-1.7-9.9-1.7c-3.1,0-4.7,0.1-6,0.4c-0.2-0.2-0.4-0.3-0.6-0.5c-0.5-0.4-1-0.8-1.6-1.2c-0.5-0.4-1.1-0.7-1.7-1.1
	c-5-3.7-16.4-8.7-25.1-10.7c-9.5-2.2-13.9-2.7-27.1-2.7c-13.8,0-18.6,0.5-30,3.1c-5.3,1.2-14.6,4.6-15.5,5.8
	c-0.2,0.2-1.7,1.7-3.3,3.2c-3,2.8-3,2.8-5.1,1.8c-1.2-0.6-1.9-1.4-1.7-1.9c0.4-1.1-0.8-2-1.4-1c-0.2,0.4-2.2,0.7-4.4,0.7
	c-6.2,0-13.2,2-15.1,4.3c-1.2,1.4-2.2,1.2-4-0.7c-2-2.1-9.4-5.7-15.1-7.2c-5-1.4-15.4-1.5-19.8-0.4c-4.4,1.2-10.1,3.5-11.3,4.5
	c-1,0.8-1.4,0.7-3.6-1.1c-3.2-2.6-7.4-4-11.5-4c-3.5,0-8.9,1.6-10.6,3.1c-0.9,0.8-1.7,0.8-6.3-0.5c-4.6-1.3-5.8-1.4-10.4-0.8
	c-4.7,0.6-5.5,0.5-8.2-0.6C90.3,5.8,74.7,2.4,62.4,3.1c-4.1,0.3-8.7,0.5-10.1,0.6C49,4,44.2,5.6,39,8.3c-6.2,3.2-18.3,15.8-22,22.7
	c-3.9,7.4-8,18.7-9.1,25c-1.8,10.5-0.7,25.6,2.4,32.5c0.7,1.5,1.6,3.5,1.9,4.5c0.6,1.6,6.5,10.9,7.3,11.6c0.2,0.2,0.5,0.7,0.7,1.1
	c0.4,1.1,6,5.7,8.7,7.2c1.3,0.7,2.4,1.5,2.4,1.7s-1.1,2.2-2.5,4.3c-5.9,9.1-9.1,17.5-10.6,27.4c-1.6,10.4,0.9,24.1,6.2,34.9l3.1,6.2
	l-1.1,2.8c-0.6,1.5-1,3.3-0.9,4c0.2,2.3,0,2.8-2.2,4.1c-5.2,3.2-12.5,17.6-14,27.5c-0.2,1.1-0.5,3-0.7,4.3
	c-0.2,1.3-0.1,6.2,0.2,10.9c0.7,9.8,3.2,20.4,6,26c1.9,3.8,6.9,9.3,8.4,9.3c0.9,0,1,0.4,0.9,4.6c-0.1,2.1-0.5,3.4-1.6,4.4
	c-5.5,5.2-8.4,10.3-11.2,19.8c-2.1,6.9-2.3,8.4-2.3,15.3c0,4.2,0.3,8.8,0.7,10.2c2.4,8.5,9.6,18.7,15.3,21.6l2.6,1.3l-0.4,3.4
	c-0.5,4.1,1.4,10.4,3.7,12.3l1.5,1.2l-3.1,9.5c-2.7,8.4-3.1,10.2-3.1,15.4c0,6.9,0.7,11.8,2.7,18.4c2,6.7,4,12.5,4.7,13.4
	c0.5,0.7-1.1,2.2-5.4,5c-4.3,2.8-13.6,13.1-15.3,17c-0.7,1.6-1.8,4.2-2.5,5.6c-6,13.1-8,22.4-6.7,31.9c0.9,6.9,4.7,17.9,7.7,22.4
	c2.8,4.2,8,8.5,11.6,9.6c2.5,0.8,2.6,0.9,2.6,3.7c0,2.7-0.3,3.2-4.5,7.3c-2.5,2.4-4.8,5.2-5.2,6.1c-3.9,8.5-5.2,14.8-4.6,23.4
	c0.5,7.6,1.8,13.3,4,16.8c2.2,3.5,6.4,7.1,9.4,8c1.4,0.4,2.9,0.9,3.4,1c0.6,0.2,0.6,0.8,0.1,2.4c-1.5,5,1.3,10.3,6.6,12.7
	c1.5,0.7,2.7,1.7,2.7,2.2c0,0.5-0.8,2.7-1.8,4.7c-1.7,3.5-1.8,4.2-1.8,12.9c0,12.5,1.4,16.5,8.1,23.7c1.5,1.6,3.5,3.5,4.5,4.3
	c1.8,1.4,1.8,1.4,0.7,4c-0.6,1.5-1.1,4.3-1.1,6.3c0,3.1,0.3,3.9,1.8,5.5c1,1,2.2,2,2.7,2.1c0.7,0.2,0.2,1.5-1.8,4.9
	c-3.2,5.2-3.5,8.2-1.5,15.5c1.1,4.2,1.7,5.7,4.7,10.9c3.1,5.4,8.8,9.8,16.2,12.5c7.9,2.8,16.4,2.3,26.1-1.8c0.7-0.3,1.4,0.4,2.3,2.4
	c1.6,3.4,4.5,5.4,10.4,7.2c5.2,1.6,9.3,1.4,13.2-0.4c1.4-0.7,2.6-1.1,2.7-0.9c0.1,0.1,0.9,2.1,1.8,4.4c2.1,5.5,4.9,8.6,10.6,11.9
	c10.2,5.9,22.7,6.8,34.9,2.6c3.2-1.1,11.1-5.6,12.5-7.2c0.2-0.2,1.8-1.5,3.6-3c1.8-1.4,4.6-3.9,6.3-5.5c3.4-3.2,3.7-3.3,4.1-1.6
	c0.6,2.3,5.7,4.6,13,5.8c5.9,0.9,7.8,1,13.5,0.3c9.3-1.1,17.8-4.5,25.4-10.2c5.8-4.2,10.5-10.3,14.5-18.5l2.2-4.6l1.9,2.1
	c3.3,3.8,9,3.4,14.8-1l3.1-2.4l3.2,1.4c1.8,0.8,4.3,1.4,5.6,1.4c2.3,0,2.4,0,2.3,2.8c-0.2,5.7,6,14.2,12.6,17.4
	c4,1.9,10.6,3.1,14.2,2.6c1.6-0.2,3-0.1,3,0.2c0,0.3-1.4,2.6-3,5.1c-4.4,6.6-9.1,16.3-10.8,22.3c-1.3,4.5-1.4,6.3-1.1,12.4
	c0.5,8.4,1.4,10.2,6.5,12.4c2.7,1.2,4.4,1.4,10.6,1.3c8-0.1,18.5-2.1,23.6-4.4c1.6-0.7,4.2-1.8,5.9-2.3c8.7-3,28.5-11.9,44.9-20.3
	c2-1,5.4-2.5,7.6-3.3c2.2-0.8,4.6-1.9,5.3-2.3c1.1-0.7,1.7-0.7,3.1-0.1c1,0.5,1.8,1.2,1.8,1.6c0,0.5,0.3,0.8,0.6,0.8
	s1.5,0.8,2.5,1.8c2.7,2.7,7.8,6.8,8.4,6.8c0.3,0,1.8,0.9,3.4,2c1.6,1.1,3.1,2,3.2,2c0.1,0,1.8,0.9,3.8,2.1c3.6,2.1,9.6,3.8,13.7,3.8
	c1.5,0,3.8,0.9,6.5,2.6c2.3,1.4,6,3.2,8.2,4c2.2,0.8,5.2,2,6.7,2.7c4.7,2.2,5.5,1.5,3.4-2.5c-4.4-8.2-7.1-12.2-10.9-16.2
	c-2.4-2.5-4.1-4.5-3.8-4.5c1.1,0,5.7,3.5,8.7,6.6c3.5,3.6,6.4,5.3,9.2,5.3c0.9,0,2.4,0.5,3.3,1.1c2.4,1.5,2,0.3-0.8-3
	c-11.4-13.4-11.5-13.4-22.1-19.5c-5.7-3.2-11.5-7.1-13.2-8.8l-3.1-3l1.7-2c0.9-1.1,2.3-2.3,3.1-2.7c2.6-1.3,5.3-6,5.6-9.9
	c0.3-3.1,0-4.3-1.8-7.9c-1.1-2.3-3.4-5.5-5-7c-1.6-1.5-2.9-3-2.9-3.3c0-0.4,3.4-3.3,11.2-9.3c6.7-5.2,15.6-11,20.6-13.7
	c4-2,6.9-4.3,6.3-4.9c-0.9-0.9-13.8,6.6-22.3,13c-5.9,4.4-10.5,6-15.4,5.4c-6.1-0.8-10.5-4.3-14.1-11.1c-1.6-3.2-1.7-3.8-1.6-11.9
	c0.2-10-1.2-16-4.8-20.5c-1.2-1.5-2.3-3-2.6-3.5c-0.5-0.8,7.9-15.7,10-17.9c0.5-0.5,1.6-2.1,2.5-3.5c0.9-1.4,5.8-6.8,11-11.9
	c5.2-5.1,8.4-8.6,7.1-7.7c-4.4,3.1-15.3,14.1-19.7,20c-2.5,3.3-6.2,9.1-8.3,12.8c-2.1,3.7-4.1,6.8-4.5,6.8c-0.4,0-1.3-0.4-2-0.9
	c-1.1-0.8-1-1.3,2.2-7.6c3.4-6.8,9.7-16.8,12.2-19.6c0.4-0.4,3.8-4.1,7.6-8.2c3.8-4.1,8.7-9.2,10.8-11.3c4.2-4.1,4.4-5,0.4-1.8
	c-1.4,1.1-3,2-3.6,2c-0.6,0-1.1,0.5-1.1,1.1c0,1-4.5,6.5-11.3,13.8c-5.1,5.4-10.8,13.8-15.3,22.5c-1.7,3.2-3.3,6.3-3.6,6.8
	c-0.4,0.7-1.2,0.5-3.8-0.5c-1.8-0.8-3.8-1.7-4.6-2.1c-1.6-1-13.9-0.8-18.3,0.2c-1.8,0.4-3.3,0.6-3.5,0.5c-0.2-0.2,2.5-2.6,5.9-5.4
	c3.4-2.8,8.6-7.8,11.7-11.1c12.5-13.5,36.2-36.8,37.5-36.8c0.2,0,1.5-1,2.8-2.2c2.9-2.6,12-7.4,13-6.8c0.4,0.2,1.7-0.2,3-0.9
	c2.7-1.6,10.4-3.2,14.4-2.9c6.6,0.4,19.1,4.9,25.3,9.1c8.2,5.5,21.4,20.5,25,28.1c0.2,0.5,0.7,1.4,1,2c1.9,3.2,4.9,15.2,4.9,19.1
	c0,3-1.3,7.7-3.2,11.4c-1,1.9-4.7,6.3-9.1,10.6l-1.9,1.9l1.9-0.4c1.1-0.2,1.5-0.2,0.9,0.1c-0.5,0.2-1.9,1.1-3,2
	c-1.1,0.9-2.5,1.5-3,1.5c-0.5,0-0.4-0.3,0.4-0.6c1.3-0.5,1.2-0.6-0.2-0.6c-0.9,0-1.5,0.3-1.5,0.9c0,0.9-1.1,1.3-9.2,3.5l-2.3,0.6
	l2.4,0.1c3.5,0.1,12.5-2.9,14.6-4.9c1-0.9,3.2-2.3,4.9-3.2c1.7-0.9,7.6-3.9,13-6.7c5.4-2.8,11.8-5.8,14.2-6.7l4.3-1.6l-3.3,0.3
	c-5.8,0.5-14.2,3.9-21,8.5c-2.8,1.9-3.9,1.8-2.2-0.1c0.6-0.6,2.2-3.5,3.5-6.4c2.2-4.7,2.4-5.8,2.3-10.1c-0.2-10-2.9-20-6.8-24.9
	c-0.6-0.7-1.7-2.5-2.5-3.8c-3.3-5.8-14.2-17.5-20.2-21.9c-12.7-9.1-27.5-12.3-40.4-8.9c-6.5,1.7-14.8,5.3-17.4,7.5
	c-1.1,0.9-2.2,1.7-2.5,1.7c-0.3,0-1.4,0.8-2.4,1.8c-1,1-3.4,2.9-5.2,4.3c-4.9,3.7-31.5,29.4-45.9,44.3c-5.8,6-11.1,10.6-11.7,10
	c-0.1-0.1,0.3-1.2,0.9-2.4c1.5-2.9,0.9-9.8-1.4-15.4c-2-4.9-2-5.1-0.8-5.1c1.1,0,4.9-3.6,7-6.5c2.4-3.5,5.9-11.2,5.9-13
	c0-0.9,0.4-1.6,0.9-1.6c1.2,0,4-3.1,5.4-5.9c0.7-1.4,1-3,0.8-4.5l-0.4-2.2h4c7.1,0,16.8-3.4,22.5-8c2.3-1.9,2.8-2,4.1-1.3
	c2.6,1.4,5.8-0.2,8.3-4.1l2.1-3.3l4.5,0.4c3.8,0.4,5.1,0.2,8-1c7.4-3.1,15.9-10.7,18.6-16.4l1.5-3.2l2.2,2.2c1.5,1.5,3.2,2.5,5.5,3
	c3.8,0.9,10.2,0.5,12.2-0.7c1.1-0.7,1.9-0.6,4.7,0.3c1.8,0.6,3.8,1.1,4.4,1.1s1.4,0.6,1.8,1.3c0.5,0.7,1.4,1.3,2.2,1.3
	c1.4,0,8.5,4,9.8,5.5c0.4,0.5,1.7,1.5,2.9,2.3c3.3,2.3,9.2,7.9,13.1,12.6c4.9,5.8,5.2,6.2,6.6,8.4c0.6,1,1.7,2.5,2.3,3.2
	c0.6,0.7,1.9,2.8,2.9,4.6c1,1.8,2.4,4,3,4.9c0.7,0.9,1.2,1.8,1.2,2.1c0,0.3,0.9,2.1,2,3.9c1.1,1.9,2,3.6,2,3.9c0,0.3,0.8,2,1.8,3.8
	c1,1.8,3.4,7.2,5.3,12.1c1.9,4.9,4.4,11,5.4,13.5c4.3,10.3,6.8,18.8,9.2,30.7c2.4,12.2,2.8,16,3.2,28.1l0.4,13.2l-1.6,1
	c-0.9,0.6-2.9,2.3-4.5,3.8s-4.9,4.1-7.3,5.8s-6.2,4.8-8.6,6.8c-2.3,2.1-6.8,5.4-9.9,7.5c-3.1,2.1-6.3,4.2-7.2,4.9
	c-3.7,2.6-25.4,14-26.7,14c-0.2,0-1.6,0.6-3.2,1.2c-4.6,2-5.2,2.2-6.5,1c-1.6-1.5-3.8-0.7-4,1.5c-0.2,1.5-0.7,1.9-3.5,2.6
	c-1.8,0.5-4.3,0.8-5.5,0.9c-3.3,0-2.8,1.9,0.5,2.1l2.7,0.2l0.1,6.1c0.1,5.2,0,6-0.9,5.7c-0.5-0.2-3.5-0.6-6.6-0.7
	c-7-0.3-6.6,1,0.4,1.6c4.7,0.4,6.9,1.5,6.9,3.5c0,1.2,1.6,2.9,3.3,3.5c0.5,0.2,1.7,0.2,2.6,0.1c5.2-0.8,6.6-1.2,7-1.7
	c0.2-0.3,0.9-0.6,1.6-0.6c0.9,0,1.4-0.6,1.7-2.2c0.3-1.8,0.9-2.5,3-3.4c1.4-0.6,2.6-1.4,2.6-1.7s0.3-0.6,0.6-0.6s0.8,1.1,1,2.4
	l0.4,2.4l3.4-0.3c2.7-0.2,4.4-0.9,7.5-3c4.5-3.1,7.3-6.3,6.1-7.1c-1.1-0.7,4.4-5.4,6.8-5.9c2.2-0.5,2.4-1.5,0.4-2
	c-1.6-0.4-4.7,0.5-5.4,1.6c-1.1,1.8-1.7,0.2-1.7-4.8c0-3-0.3-6.4-0.6-7.6c-0.6-2-0.5-2.2,2-3.4l2.6-1.3l0.4,2.5c0.6,3.5,3,10.9,4,12
	c0.5,0.5,1,1.7,1.3,2.5c0.4,1.2,0.8,1.4,2.2,1.1c4.4-1,6-1.8,8.2-4.3c1.3-1.4,2.6-2.6,2.9-2.6c0.3,0,0.5-0.2,0.5-0.5
	c0-0.5,4.6-7.1,6.1-8.6c0.5-0.5,0.8-1.1,0.8-1.5c0-1.3,1.3-0.5,2.6,1.7c1.7,2.8,2.2,2.9,3.3,0.4c0.8-2,6.6-7.3,6.6-6
	c0,0.9,3.5,0.1,4.1-0.9c0.2-0.4,1.9-1.5,3.8-2.3c2.8-1.3,3.5-2,4.7-4.8c0.8-1.8,1.7-4.8,2.1-6.8
	C591.8,707.7,591.8,707.7,589.4,704.8z M558.1,150.7c1.8,0,5.7,5.2,6.6,8.8c1.4,5.7-0.9,13-5.9,18.1c-1.5,1.5-3.1,2.8-3.5,2.7
	c-0.4,0-1.5-0.9-2.4-2c-0.8-1.1-2-1.9-2.5-1.9c-1,0-1.3-1-0.4-1.6c0.3-0.2,1.7-2.1,3.1-4.1c2.2-3.2,2.5-4.4,2.8-8.5
	c0.2-2.6,0-5.3-0.4-6C554.7,154.7,556.5,150.7,558.1,150.7z M29.5,110.7c-1.3-1.3-2.8-2.6-3.4-2.9c-1.7-0.9-7-8.7-9.8-14.3
	c-8.2-16.5-7.1-35.9,3.2-57.5c3.9-8.1,6.8-12.3,13.3-18.9c3.4-3.5,5-4.5,11.9-7.5c7.8-3.4,8.1-3.5,16-3.8C70.8,5.2,81.5,6.9,93,10.8
	c4.3,1.5,9.1,2.8,10.5,3.1c2.6,0.4,3,1.2,1.1,2.5c-0.8,0.5-2.1,0.1-4.9-1.3c-3.3-1.6-4.6-1.9-9.1-1.9c-5.4,0-10.2,1.5-12.7,3.9
	c-0.7,0.7-1.6,0.9-2.8,0.7c-1-0.2-4.1-0.6-7-0.8c-4.6-0.3-6.2-0.1-11.7,1.6c-3.5,1.1-8.1,2.9-10.1,4.2c-10,6-18.7,17.9-21.2,28.8
	c-1.5,6.8-2,24-0.7,28.6c1.3,4.5,2.7,8.6,4.4,12.3c0.7,1.5,1.3,3,1.3,3.2c0,0.2,1.6,3.2,3.6,6.7c2,3.5,3.6,6.5,3.6,6.7
	c0,0.2-0.7,1.3-1.6,2.3C33.7,113.6,32.3,113.5,29.5,110.7z M21.3,271.3C17,265.6,14,256,12.9,245c-1.2-12.7-0.7-18.6,2.4-28.9
	c1.8-5.7,4.5-10.7,8.4-15.5c2.2-2.7,3-3.1,3-1.5c0,1.7,2.7,6.2,5.1,8.5l2.3,2.3l-1.3,1.3c-2.7,2.7-3.5,4.7-3.9,9.6
	c-0.5,6.1,0.8,9.9,4.2,12.9c1.2,1.1,2.3,2.2,2.3,2.6c0,0.3-1.1,1.5-2.5,2.6c-5,4-8.5,13.6-7.8,21.3c0.2,2.4,0.9,5.6,1.5,7.3
	c1,2.8,1,3.1-0.4,5.4c-0.8,1.4-1.5,2.5-1.7,2.5C24.4,275.4,23,273.6,21.3,271.3z M28.2,349.5c0,1.8-1.1,1.4-4.4-1.6
	c-6.7-6.2-10.5-14.8-11.2-25.1c-0.4-6.1-0.2-7.4,1.6-14.7c2.3-8.9,4-13,7.7-18.4c2.3-3.3,3.7-4.1,3.7-2.2c0,0.4,0.8,1.7,1.7,2.9
	l1.7,2.2l-3.3,4.4c-7.2,9.6-9.6,24.4-5.6,34.5c2.1,5.4,6.2,10.7,8.8,11.5c1.6,0.5,1.7,0.9,0.4,3.4C28.6,347.5,28.2,348.8,28.2,349.5
	z M22.9,516.4c-8.9-5.8-15.2-20.3-15.4-35.5c-0.1-5.6,2.2-15.1,4.8-20.6c0.7-1.5,1.3-3.1,1.3-3.5c0-1.8,7.2-14.1,7.2-12.3
	c0,0.3-0.8,3.1-1.7,6.2c-3.6,11.7-3.2,23.3,1.1,35.2c1.8,4.8,4.1,8.8,6.3,10.5c1.4,1.1,1.6,1.7,1.3,3.2c-1,4.1-1,5.9-0.1,9.1
	c0.8,2.8,0.9,3.4,0.1,4.3c-0.5,0.6-1.1,1.8-1.4,2.8C26,517.8,25.2,517.9,22.9,516.4z M123,711.6c-0.5,1.8-1.2,2.9-2.2,3.2
	c-2.8,1.1-9.1,1.3-12.2,0.4c-9-2.6-14.2-8.3-10.2-11.2c1.6-1.2,1.7-1.2,3.7,0.5c1.2,1,2.8,1.7,4,1.7c2.2,0,6.5-2,7.8-3.6
	c0.8-1,1-0.9,1.6,0.4c0.4,0.8,2.4,2.5,4.4,3.7l3.7,2.2L123,711.6z M458.7,732.5c10.9,5.5,14,7.6,19.9,13.7c5.3,5.5,5.9,6.2,4.4,6.2
	c-1.8,0-5.5-1.9-5.5-2.8c0-1.5-7.5-7.5-12.3-9.8c-3-1.5-6-3.2-6.8-4c-0.8-0.7-1.6-1.2-1.8-1c-0.6,0.6,4.6,6.3,10.2,11.4
	c2.8,2.6,5.8,5.8,6.5,7.2c0.8,1.4,2.4,4.1,3.5,6c3.1,4.9,2.2,5.9-1.7,1.8c-5.2-5.4-10.9-11.6-14-15.1c-5.1-5.9-7.5-8-7.4-6.4
	c0,0.3,1.8,2.4,4,4.8c4,4.4,4.8,5.8,2.8,4.9c-4.1-1.6-8.1-2.8-8.1-2.3c0,0.8,2.7,2.4,6,3.5c6.2,2.1,7.7,3.1,10.8,6.8
	c1.7,2.1,2.9,3.9,2.5,4c-0.3,0.1-1.9-0.5-3.5-1.4c-1.6-0.9-4.5-2.5-6.5-3.6c-2-1.1-5-2.2-6.8-2.4c-6.6-0.9-10.8-2.5-17.1-6.4
	c-3.6-2.2-6.8-4.5-7.3-5.1c-1.9-2.5-9.8-8.8-11.9-9.4c-3.2-0.9-4.9-0.4-16.7,5c-1.1,0.5-4.1,1.8-6.6,3c-4.5,2-6.8,3.1-18.2,8.4
	c-7.2,3.3-26.2,10.8-33.3,13c-1.8,0.6-5.9,1.5-9.2,2c-10.4,1.8-18.1,0.8-20.8-2.7c-1.2-1.6-1.3-2.4-1.1-8.6
	c0.5-11,3.5-18.4,13.7-34.2c3.5-5.3,9-13,12.8-17.8c0.3-0.4,1.6-2,2.8-3.6c1.3-1.6,2.8-3.6,3.5-4.3c0.7-0.7,1.7-2.1,2.3-3
	c1.1-1.7,2.6-3.5,6.6-8c2.5-2.9,3.9-3.1,10.5-1.5c5.3,1.2,10.8,4.1,15,7.7c6.4,5.5,9.2,9.1,9.8,12.5c0.4,2.1,0.1,2.8-3.2,6.9
	c-2,2.5-4.3,5.5-5.2,6.6c-1.6,2.1-4.3,3-12,3.9c-1.8,0.2-6.9,1.1-11.2,2c-4.4,0.9-10.3,2-13.2,2.5c-7.8,1.4-14.8,3.7-14.8,4.8
	c0,1.2,0.6,1.2,5.2,0c4.5-1.2,5.6-1.4,15.6-3c4.4-0.7,11-1.9,14.8-2.6c3.8-0.7,9.8-1.8,13.2-2.3c14.3-2.2,31.9-5.8,39.3-8.1
	c4.5-1.4,9.6-1.3,11.9,0.2c5.5,3.4,7.5,4.8,11.2,7.9c2.2,1.8,4.7,4,5.6,4.9C449.4,726.7,455.5,730.9,458.7,732.5z M426.8,681.7
	c-0.1-0.3,0.1-0.5,0.5-0.5c0.3,0,0.8,1.4,1,3c0.3,1.8,1.2,3.8,2.2,5.1c7.7,9.1,10.1,16.1,7.7,21.9c-0.5,1.3-1,2.3-1.1,2.2
	c-0.1,0-2.1-1.1-4.5-2.4c-3.4-1.8-4.3-2.6-4.2-3.7c0.1-1.9-1.6-8.9-2.7-10.6c-0.5-0.8-1.2-2.5-1.7-3.9c-0.6-2.1-0.6-2.7,0.3-4
	C425.4,687.5,427,682.6,426.8,681.7z M439.7,705.1c-0.5-5.1-2-8.3-6.6-14c-5.6-7-5.6-10.2,0-4.4c4,4.2,6.4,7.8,7.8,12
	c1.2,3.4,1.6,10.6,0.8,14c-0.5,2.2-1.5,2.7-2.9,1.4c-0.6-0.6-0.5-1.2,0.3-2.8C439.8,709.8,440,708.3,439.7,705.1z M426,704.3
	c0,3-0.7,3.6-4.7,4.2c-1.7,0.2-6.8,1.3-11.2,2.4c-4.5,1.1-10.5,2.4-13.4,3c-2.9,0.5-7.4,1.3-10.1,1.9c-2.6,0.5-4.8,0.7-4.8,0.3
	c0-0.3,0.4-0.8,0.9-1c0.5-0.2,2.4-2.3,4.1-4.8c1.8-2.4,4.5-5.6,6.1-7.1c2.5-2.3,3.5-2.8,6.9-3.3c2.2-0.3,5.5-0.5,7.4-0.4
	c4.3,0.2,11.5-2.5,13.9-5.4c0.9-1.1,1.8-1.9,1.9-1.7C423.8,693.4,426,702.3,426,704.3z M396.3,697.9c-0.1,0.1-1.1,0.8-2.2,1.5
	l-2,1.4l-1.2-2.5c-1.8-3.7-4.6-6.9-9.7-10.9c-5.6-4.5-11.8-7.3-18-8.3c-2.6-0.4-4.8-0.8-4.9-0.9c-0.1-0.1,0.4-0.8,1-1.6
	c1.1-1.3,1.5-1.3,4.8-0.8c9.8,1.7,17.6,5.5,24.4,11.8C392.5,691.3,397,697.4,396.3,697.9z M446.1,685.8c0.5,0,1.2,0.3,1.4,0.7
	c0.2,0.4,0,0.7-0.6,0.7c-0.5,0-1.2-0.3-1.4-0.7C445.3,686.1,445.6,685.8,446.1,685.8z M432,672c0,3.8,2.8,8.4,6.7,10.8
	c1.6,1,3.6,2.8,4.5,4c0.9,1.2,2,2.2,2.5,2.2c1.6,0,6.4,5.2,8.3,8.9c1.6,3.3,1.8,4.3,1.6,7.9c-0.3,4-2.5,10.3-3.6,10.3
	c-0.3,0-0.5-3.3-0.5-7.4c0-6.8-0.1-7.7-1.8-10.9c-1-1.9-2-3.5-2.1-3.5c-0.2,0,0.5,1.9,1.5,4.1c2.3,5.5,2.5,13.8,0.3,18.5
	c-0.8,1.7-1.8,3.1-2.3,3.1c-0.5,0-1.9-0.9-3.1-1.9l-2.2-1.8l0.7-3.5c2.1-9.9-0.8-19.8-7.8-26.1c-7.4-6.6-7.1-6-4.9-13.3
	C431.2,669,432,668.5,432,672z M399.9,627c14.6-0.3,23.6,4.4,27.3,14.1c1.3,3.5,1.6,5.4,1.6,11.4c0,6.4-0.4,8.7-3,19.4
	c-3.6,14.5-4,15.5-7.4,19.1c-2.4,2.6-3.2,3-8.2,4.1c-3.1,0.7-7,1.4-8.8,1.6l-3.3,0.4l-2.3-4.1c-5.4-9.6-18.7-17.8-31.6-19.4
	c-1.2-0.1-2.4-0.5-2.7-0.8c-0.2-0.3-0.9-3.3-1.4-6.8c-2.3-15.7,0-22.2,10.3-28.3C381.9,630.9,392.2,627.1,399.9,627z M438.1,557
	c-2.4,2.8-5.2,3.3-7.6,1.4c-2.5-2-2.5-5.8-0.1-8.2c2-2,6.8-2.4,8.2-0.7C440.3,551.6,440,554.8,438.1,557z M493.2,535.1
	c-3.1,1.7-4.2,1.9-8.8,1.9c-4.9,0-5.6-0.2-7.8-1.9l-2.5-1.9l0.4-4c0.3-2.9,0.2-3.8-0.3-3.1c-0.4,0.5-0.7,1.7-0.7,2.5
	c0,2.8-4.1,10.1-7.8,14.1c-4.2,4.5-10.2,8.8-13.8,9.8c-2.8,0.8-10.8,0.9-10.6,0.2c0.4-1.4-2.3-4.8-4.3-5.3c-6-1.6-11.8,4.6-9.8,10.5
	c0.7,2,0.6,2.3-1.1,3.7c-2.7,2.3-10.5,5.9-14.8,6.8c-2.1,0.5-6.1,0.7-9.4,0.5c-4.9-0.3-6.1-0.6-9-2.4c-1.8-1.1-3.3-1.8-3.3-1.6
	c0,1,3,3.3,6.1,4.7c2.8,1.2,3.1,1.6,3.1,3.6c0,2.9-0.8,5-2.8,7.2c-2.1,2.2-2.5,2.2-2.5-0.4c0-2.2-3.4-8.4-4.6-8.4
	c-0.4,0,0.1,1.2,1.1,2.8c2.6,4.2,2.8,9.5,0.5,14.7c-3.1,7-6.9,11.8-11.2,14.4c-0.4,0.2-2-0.5-3.6-1.7c-1.6-1.2-4.7-2.7-7-3.3
	c-5-1.3-5.2-1.3-4.1-0.1c0.4,0.5,2.3,1.5,4.2,2.1c3.9,1.2,7.3,3.8,6.8,5.2c-0.2,0.6,0,0.8,0.5,0.6c1.3-0.5,2.8,1.7,4,5.7
	c2.5,8.5,0.7,18.5-3.3,18.5c-2,0-11.3,5.8-14.7,9.2c-6.3,6.2-7.3,11.9-4.3,25.1c0.9,4.1,1.6,7.8,1.6,8.2c0,0.4-1,1.8-2.3,3
	c-1.3,1.2-5.2,5.8-8.7,10.2c-3.5,4.3-7.9,9.7-9.8,11.9c-1.8,2.2-4.9,6.1-6.8,8.8l-3.5,4.8h-4.1c-7.7,0-15.5-3-20.5-7.8
	c-2.7-2.6-5.4-7.8-5.7-10.9c-0.2-1.7,0.1-2,1.8-2.5c2-0.5,4.8-2.9,4.1-3.6c-0.2-0.2-1.5,0.4-2.9,1.3c-1.4,0.9-3,1.6-3.5,1.6
	c-0.6-0.1-1.5,0.1-2.1,0.3c-1.3,0.6-8.5-2-9-3.3c-0.2-0.5-0.9-1.2-1.6-1.6c-1.1-0.6-1.2-0.4-0.8,1.3c0.3,1.8,0.1,2.1-2.1,3.5
	c-1.4,0.8-3,1.6-3.5,1.7c-2.4,0.6-6.8,0.9-8.1,0.5c-2.1-0.5-4.6-3-4.2-4.1c0.2-0.5-0.1-0.9-0.6-0.9c-0.5,0-1,0.5-1,1.2
	s-0.4,1.8-1,2.5c-0.5,0.7-1,1.8-1,2.4c0,0.6-0.3,1.2-0.6,1.3c-0.3,0.1-1.9,2.2-3.5,4.5c-4.2,6.3-10,11.6-16.1,14.8
	c-2.9,1.5-5.9,3-6.6,3.2c-0.7,0.2-2.6,0.9-4.2,1.5c-5.1,1.9-14.8,2.4-21.5,1.2c-6.8-1.2-9-2.2-11.6-5c-1.7-1.9-1.8-1.9-2.5-0.7
	c-0.4,0.7-2.2,2.3-4,3.5c-1.8,1.2-3.3,2.4-3.3,2.7c0,0.3-0.4,0.6-0.9,0.6c-0.5,0-1,0.2-1.2,0.5c-0.5,1.2-12.7,8.3-16.9,9.8
	c-6.1,2.2-16.8,2.8-22.3,1.2c-4.6-1.3-9.1-3.3-11.7-5.1c-2.4-1.7-6.8-7.7-8.5-11.5c-1.3-3-1.4-7.7-0.2-11.3c0.8-2.3-0.6-1.8-1.4,0.5
	c-0.8,2-0.8,2-2.7,1c-3-1.6-5.4-4.8-5.4-7.4c0-3-1.1-2.9-1.7,0.1c-0.3,1.8-1,2.7-3.2,3.9c-4.5,2.6-6.3,2.7-9,0.5l-2.3-1.9l1.5-1.4
	c0.8-0.8,1.5-1.8,1.5-2.2s-0.3-0.3-0.7,0.3c-0.6,1-3.9,3.3-9.2,6.6c-3.7,2.2-8.1,3.2-14.8,3.2c-6.6,0-9.6-0.7-15.2-3.5
	c-5.1-2.6-11-9.5-12.9-15.3c-0.5-1.5-1.1-3-1.4-3.4c-1.1-1.6-1.3-9.1-0.2-12c1.1-3.1,4.7-8.7,7.3-11.5c2.8-3,1-2.8-2,0.2l-2.9,2.8
	l-2.1-2.1c-1.8-1.8-2.1-2.6-2.1-5.3c0-1.7,0.4-4.3,0.8-5.6c0.7-2.2,1-2.4,2.6-2.1c1.6,0.3,1.7,0.3,0.6-0.6c-0.6-0.5-1.1-1.3-1.1-1.7
	c0-0.4-0.3-0.8-0.7-0.8c-1,0-5.2-4.6-7.9-8.7c-3.8-5.8-4.9-10.5-4.9-20.8c0-6,0.2-9,0.8-9.5c0.4-0.4,0.8-1.3,0.8-2
	c0-2.3,4.2-9.1,7.8-12.7c2-2,3.3-3.6,2.8-3.6c-0.5,0-3.2,2.3-6,5.2c-5,5-5.2,5.2-7.1,4.4c-2.5-1-4.6-4.1-5.1-7.3
	c-0.7-4.8,1.7-9.2,2.6-4.9c0.7,3.3,3.4,6,5.8,5.9c1.4,0,1.7-0.2,0.8-0.4c-2-0.5-3.7-2.2-5-5.4c-1.6-3.7-1.6-6.5,0.1-11.4
	c0.7-2.2,1.2-4.2,1-4.4c-0.8-0.8-3.2,6.2-3.2,9.5c0,1.9-0.3,3.5-0.6,3.5c-0.3,0-0.5-0.3-0.5-0.7c0-0.4-0.6-0.6-1.5-0.4
	c-2.5,0.6-9-4-11.5-8.1c-3.7-6-5.7-19.1-4.2-26.7c1.5-7.5,2.8-10.5,6.5-15.5c3.8-4.9,5.4-6.3,5.4-4.4c0,1.3,3.7,5,5.8,5.8
	c3.2,1.2,5,1.5,4.5,0.7c-0.2-0.4-1-0.8-1.6-0.8c-0.6,0-2.2-0.9-3.6-2c-2.6-2.1-3.8-5.1-3.8-9.4c0-3.1,1.3-8.4,2.1-8.4
	c0.3,0,0.6,0.3,0.6,0.6c0,1.2,7.1,4.7,10.3,5.1l3.2,0.4l-4.6-2.6c-5.4-3.1-6.2-3.9-8.1-8.5c-2.2-5.4-1.8-9.4,1.1-9.5
	c1.1,0,1.3-0.2,0.6-0.4c-1.7-0.4-1.4-2.2,0.6-4.2c2.8-3,1.2-3.7-1.8-0.8l-2.6,2.5l-1.3-1.6c-4.5-5.7-8.5-18.9-8.5-28.2
	c0-11.5,4-25.1,9.1-30.7c1.3-1.5,3.9-4,5.6-5.7l3.2-3l-3.7-11.1c-2.3-6.9-4.1-13.6-4.7-17.8l-1-6.7l2.4-6.9
	c4.5-13.1,4.6-13.7,1.9-16.3c-1.2-1.2-2.5-9-2.1-12.4c0.2-1.6,0.1-3.1-0.2-3.3c-0.6-0.4-0.2-3.6,0.9-6.4c0.5-1.3,1-1.7,1.9-1.5
	c0.6,0.2,1.4,0.1,1.6-0.3c0.2-0.4,0-0.7-0.6-0.7c-1.6,0-5.5-2.3-6.9-4c-6-7.7-7.8-17.7-5.1-28c1.7-6.6,7.1-16.8,9.4-17.8
	c0.8-0.4,1.5-1,1.5-1.4c0-0.4,1.2-1.9,2.6-3.3s2.5-2.6,2.4-2.7c-0.3-0.3-5.4,2.9-6,3.8c-1.4,2.3-4.9-2.6-5.2-7.3
	c-0.2-3.5,1.1-10,2.4-11.6c0.4-0.5,0.4-2,0.2-3.6c-1-5.8-0.5-13.3,1-17.7c1.7-4.8,6.5-12,8.8-13.3c6.8-3.8,7.2-4.1,6.2-4.3
	c-0.6-0.1-2.5,0.4-4.3,1.1c-3.1,1.4-3.2,1.4-4.8,0.1c-2.5-1.9-4.6-7.6-4.6-12.8c0-2.4,0.3-4.6,0.6-4.8c0.4-0.2,0.7-0.9,0.7-1.4
	c0-1.9,2.5-4.8,4-4.4c0.7,0.2,1.3,0,1.3-0.4c0-0.4-0.4-0.7-0.9-0.7c-1.4,0-6.2-5-7.3-7.6c-1.9-4.4-2-8.4-0.4-12.6
	c2.1-5.5,3.8-8.3,6-9.8c1.1-0.7,1.9-1.8,1.9-2.5c0-1.1-0.1-1.1-1.8,0.2c-2.2,1.7-5.9,6.3-6.5,8c-0.7,2.1-1.5,1.4-2.9-2.3
	c-3.4-9-4.4-14.8-4.4-25.5c0-10.5,0.5-13.8,3.6-22.8c1.2-3.6,4.9-10.8,5.9-11.5c0.2-0.2,1.6-2.5,2.9-5.3c1.4-2.7,3.2-5.8,4-6.9
	c2.1-2.8,2.5-4.1,1.4-5.1C37,102.8,29.5,86,27.9,78.9c-1.2-5.5-1.4-13-0.4-19.3c0.9-5.5,3.8-14.8,5.7-18.1c5-8.9,15-16.7,25.7-20
	c3.7-1.1,12.9-1.7,13.8-0.8c0.2,0.2-0.7,2.4-2,4.8c-3.3,6.2-1.7,5.7,4.3-1.5c1.8-2.2,2.5-2.6,3.8-2.3c1.4,0.4,1.5,0.2,1.2-1.2
	c-0.6-2.5,3.7-4.2,10.6-4.2c4.5,0,5.9,0.3,8.9,1.8c3.6,1.8,7.2,6.2,7.2,8.7c0,0.6,0.3,1.1,0.7,1.1c0.4,0,0.7-0.2,0.7-0.5
	c0-1.3-2.3-7.2-3.2-8.2c-1.2-1.3-1.2-1.4,1.8-2.4c4.3-1.5,11.8-1.6,16.8-0.4c2.5,0.6,4.9,1.4,5.3,1.7c0.4,0.3,1.8,0.6,3.1,0.8
	c2.2,0.2,2.4,0.2,1.5-0.8c-0.9-1-0.8-1.2,1.5-2.3c3.7-1.8,12-1.7,16.3,0.3l3.2,1.5l-3.1,2.7c-1.7,1.5-2.9,2.8-2.8,3
	c0.2,0.2,1.8-0.6,3.5-1.7c5.8-3.7,16-7.1,22.6-7.5c8.8-0.5,21.2,3,26.7,7.5c1.9,1.6,1.9,1.6,0.8,3.3c-1.1,1.6-1.1,1.7,0.2,2.1
	c1.2,0.4,4.6-1.3,4.7-2.4c0.1-1.3,6.4-4,11.3-4.7c5.1-0.7,5.5-0.7,10.6,1.1c5.5,1.9,6.8,1.9,4.9,0c-1-1-1-1.2,1.1-3
	c5.4-4.7,13.7-7.6,29.9-10.6c5.5-1,27.2-1,34,0c9.7,1.4,16.9,3.1,18.1,4.2c0.3,0.3,1,0.6,1.4,0.6c0.7,0,7.2,2.9,15.8,7
	c1,0.5,1.8,0.9,2.5,1.1c0.5,0.4,1,0.7,1.6,1.1c-0.5,0.2-0.9,0.5-1.5,0.9c-3.7,2.5-6.6,5.1-6.1,5.6c0.2,0.2,2.7-0.6,5.5-1.8
	c7-3,12.8-3.1,19.9-0.3c2.6,1.1,5.1,2.5,5.5,3.1c0.3,0.7,1.1,1.2,1.6,1.2c0.5,0,1.3,0.6,1.8,1.3c1.1,1.7,2.1,1.7,1.2,0
	c-1-1.9,0.9-2.7,6.7-2.8c5.8-0.1,9.5,1.5,12,5.2c2.2,3.2,2.1,4.1-0.6,6.3c-1.3,1-2.3,2.3-2.3,2.8c0,1.3,0.4,1.2,3.2-0.9
	c1.3-1.1,3.6-2.3,5.1-2.7c1.4-0.5,3.4-1.1,4.2-1.4c3.7-1.4,19.5-0.1,20.6,1.6c0.7,1.1,1.4,0.1,0.9-1.2c-0.2-0.6-1.3-1.4-2.4-1.8
	c-1.1-0.4-2-0.9-2-1.1c0-0.5,3.9-3.5,6.9-5.3c1.4-0.9,2.8-1.8,3-2s2.6-1.2,5.3-2.2c4-1.4,6.6-1.8,13.4-2.2c4.6-0.2,8.4-0.2,8.4,0.1
	c0,0.3-0.6,1.3-1.3,2.3c-0.7,1-1.1,2-0.9,2.2c0.3,0.4,5.4-2.5,6.2-3.5c0.7-0.8,6.3-5,7.9-5.9c3.1-1.7,10.9-3.4,17.2-3.8
	c6.2-0.4,19.7,1,22.8,2.4c0.7,0.3,3.4,1.2,5.9,2c2.6,0.8,5,1.8,5.5,2.1c1,0.8,1.8,0.2,1.2-0.8c-0.2-0.4-1.8-1.6-3.4-2.6
	c-2-1.2-2.7-2-2.2-2.3c3.4-2.1,14-2.9,23.9-1.8c3.5,0.4,5.1,1,7.4,2.6c1.6,1.2,3.3,2.1,3.8,2.1c2.5,0,12.7,12.7,15.2,18.8
	c3.7,9.3,4.8,12.7,6.2,20.5c1.4,7.4,1.6,22.5,0.4,30c-2.4,15.4-6.9,29.4-13.9,43.5c-4.6,9.3-4.3,8.6-3.3,8.6c0.5,0,2.2-1.8,3.7-4
	l2.8-4l1.7,1.5c1.6,1.5,1.7,1.7,1.3,7.8c-0.3,5.9-1.5,11.2-2.4,11.2c-0.2,0-1.1-1-2-2.3c-0.9-1.2-1.9-2.3-2.2-2.3
	c-0.7,0,0.1,2.6,1.2,3.9c2.2,2.6,2.4,3.8,0.9,5.2c-1.6,1.5-1.2,2.7,0.4,1.4c2.6-2.2-0.1,10.5-3.3,15.4c-0.8,1.2-1.7,1.7-3,1.7
	c-1,0-1.9,0.3-1.9,0.6c0,0.7,1.6,1.4,3.4,1.4c0.7,0,2,0.7,2.9,1.6c1.4,1.4,1.6,2.2,1.6,5.9c0,3.5-0.4,5-2,8.1
	c-3,5.8-3.9,6.4-9.5,7.5c-3.1,0.5-4.9,1.2-4.7,1.6c0.1,0.4,1,0.7,1.8,0.6c5.9-0.6,7.1-0.5,8.8,1.2c6.2,5.8,6.3,19.1,0.3,25.1
	c-1.4,1.4-1.7,2.6-0.7,2.6c0.3,0,0.8-0.3,1-0.7c0.7-1.1,2.7-0.8,4,0.7c0.8,0.9,1.2,2.4,1.3,4.5l0,3.1l-2.8,0.6
	c-3.5,0.7-3.3,2.1,0.1,1.8c1.6-0.1,2.3,0,2.1,0.5c-0.2,0.4-0.1,0.8,0.2,1.1c0.4,0.2,0.7,0.1,0.7-0.3c0-1.2,1.2-0.8,3.7,1.4
	c5.8,5.1,7.6,15,5.2,29c-2.1,12.6-8.1,23.4-16.5,30c-2.7,2.1-4.9,4.1-4.9,4.4c0,0.7,0.4,0.7,1.9-0.2c2.2-1.4,8.6,1,12.4,4.7
	c3.3,3.2,7.5,10.6,8.8,15.5c1,4,0.8,14.3-0.4,19.7c-0.9,4-5,13.4-8.5,19.6c-1.8,3.1-11.8,13.5-16,16.5c-2.3,1.6-4.1,3.1-4.2,3.3
	c0,0.2,1.6,0.9,3.6,1.5c2,0.6,5.1,2.4,7,3.9c6,5,8.3,11.2,7.6,21.2c-0.6,8.7-3.8,17.9-7.7,22c-0.8,0.8-1.2,1.5-1,1.5
	c0.2,0-0.5,0.8-1.6,1.7c-2.2,1.9-12.6,6.9-14.2,6.9c-0.6,0-1.1,0.3-1.1,0.6c0,0.3-0.2,1.1-0.4,1.6c-0.3,0.7,0,1,0.6,1
	c2.3,0,3.2,5,1.8,9.4c-0.5,1.5-1.2,2.5-1.9,2.5c-1.4,0-3.4,1.5-3.4,2.6c0,0.6,0.7,0.7,2.3,0.4c3.9-0.7,10.2,0.8,13.4,3.2
	c5.6,4.3,8.2,9.2,9,17.2c1,9.3,0,15-3.5,20.7c-1,1.7-2.7,4.4-3.6,6.1c-3.5,6.2-12.8,12.5-22.1,14.8c-4.1,1-13.3,2.3-13.3,1.8
	c0-0.2,0.6-2.5,1.3-5.3c2.4-9.5,2.7-15.5,0.4-7.5C504.8,524.3,499.7,531.5,493.2,535.1z M506,764.7c-1,0.2-3,0.7-4.6,1
	c-1.5,0.3-3.5,0.6-4.4,0.6c-1.9,0-2-0.7-2.7-12c-0.3-5.1-0.2-6.5,0.5-6.5c1.2-0.1,2.8-0.4,4.4-0.9c2.5-0.8,4.3,2.8,8.4,16.6
	C507.7,764,507,764.5,506,764.7z M516.3,752.6c-0.2,3.4-0.2,3.4-3.8,5.6c-4.1,2.5-4.4,2.5-4.5,1.4c-0.2-2.2-3.7-10.3-5.2-11.8
	l-1.6-1.7l2-0.8c2.1-0.9,3.4-0.5,3.4,1c0,1.4,4.5,5.6,6,5.6c0.7,0,1.3-0.3,1.3-0.7s-0.6-0.7-1.3-0.7c-1.1,0-6-5-6-6.1
	c0-0.5,7.9-3.4,8.3-3C515.5,742.1,516.5,749.4,516.3,752.6z M530.3,755.1c-0.9,0.7-3.3,2.2-5.3,3.2c-4,2.1-6.2,2.9-6.7,2.4
	c-0.2-0.2,0-2.6,0.3-5.5c0.6-5,0.3-7-1.9-13.8c-0.5-1.6,0.5-2.4,4-3.2l2-0.4l3.5,7.3c2,4,4,7.6,4.5,7.9
	C531.8,753.7,531.7,754,530.3,755.1z M532.1,750.1c-0.7,0.9-1.3,0-4.1-5.7c-1.8-3.7-3.6-7-3.9-7.2c-0.8-0.6-0.8-0.5,3-2.4
	c4.1-2,4.5-1.9,4.6,1c0.1,2.5,0.2,4.4,0.8,10.2C532.7,747.8,532.6,749.4,532.1,750.1z M549.3,742.9c-3,2-5.1,2.9-5.1,2.1
	c0-0.1-0.9-2.7-2-5.7c-1.1-3-2.1-6.8-2.4-8.5l-0.4-3.1l3.4-1.9c1.9-1,3.5-1.8,3.6-1.7c0.1,0.1,1.1,2.2,2.2,4.6
	c1.1,2.4,2.3,4.6,2.7,4.8c0.4,0.2,1.2,1.3,1.8,2.4C554.4,738.6,553.7,739.9,549.3,742.9z M555.6,736c-0.7,0-2.9-3.4-4.8-7.2
	c-0.8-1.6-1.9-3.5-2.5-4.2c-1-1.1-1-1.3,0.5-2.3c0.9-0.6,2.3-1.8,3.2-2.6c2.2-2,2.5-1.3,3,7.1c0.2,3.8,0.6,7.5,0.8,8.1
	C556,735.5,555.9,736,555.6,736z M559.3,733.2l-2.4,4.1l-0.4-7.8c-0.2-4.3-0.7-8.7-1.1-9.7c-0.7-1.8-0.6-2.1,0.6-3
	c0.8-0.5,2.5-1.9,3.7-2.9c1.3-1.1,2.5-1.7,2.8-1.3c0.2,0.4,1.9,2.5,3.7,4.8l3.2,4.1l-3.8,3.8C563.5,727.5,560.7,731,559.3,733.2z
	 M569.3,728.6c-0.8,3.1-1.3,3.3-2.6,1.3c-0.8-1.2-0.7-1.6,0.8-3.1C569.7,724.7,570.2,725.2,569.3,728.6z M570.3,720.4
	c-0.5-1-2.3-3.3-4-5.1c-1.7-1.8-3-3.5-3-3.8c0-0.6,2.6-2.6,3.4-2.6c0.6,0,2.2,3.6,3.9,8.9C572,722.1,571.8,723.3,570.3,720.4z
	 M576,723.7c-1,0.2-2.3,1-2.9,1.8c-0.6,0.7-1.3,1-1.5,0.7c-0.2-0.4-0.1-0.8,0.2-1c1.5-0.9,0-10-2.6-15c-1.2-2.4-1.2-2.4,0.3-3.8
	c0.8-0.8,1.8-1.4,2.1-1.4c0.5,0,6.4,16.7,6.3,17.9C577.8,723.1,577,723.5,576,723.7z M588.7,711.6c-0.9,4.5-2.3,6.8-5.6,9
	c-1.2,0.8-2.4,1.5-2.6,1.5c-0.2,0-1.9-3.6-3.6-8.1c-1.7-4.4-3.4-8.6-3.7-9.2c-0.4-0.8-0.2-1.4,0.4-2c0.6-0.5,1.7-1.6,2.6-2.4
	c1.4-1.5,1.8-1.5,3.6-0.8c2.1,0.9,3.3,1.8,7.4,5.7l2.4,2.2L588.7,711.6z"/>
<path class="st2" d="M483,752.5c-1.8,0-5.5-1.9-5.5-2.8c0-1.5-7.5-7.5-12.3-9.8c-3-1.5-6-3.2-6.8-4c-0.8-0.7-1.6-1.2-1.8-1
	c-0.6,0.6,4.6,6.3,10.2,11.4c2.8,2.6,5.8,5.8,6.5,7.2c0.8,1.4,2.4,4.1,3.5,6c3.1,4.9,2.2,5.9-1.7,1.8c-5.2-5.4-10.9-11.6-14-15.1
	c-5.1-5.9-7.5-8-7.4-6.4c0,0.3,1.8,2.4,4,4.8c4,4.4,4.8,5.8,2.8,4.9c-4.1-1.6-8.1-2.8-8.1-2.3c0,0.8,2.7,2.4,6,3.5
	c6.2,2.1,7.7,3.1,10.8,6.8c1.7,2.1,2.9,3.9,2.5,4c-0.3,0.1-1.9-0.5-3.5-1.4c-1.6-0.9-4.5-2.5-6.5-3.6c-2-1.1-5-2.2-6.8-2.4
	c-6.6-0.9-10.8-2.5-17.1-6.4c-3.6-2.2-6.8-4.5-7.3-5.1c-1.9-2.5-9.8-8.8-11.9-9.4c-3.2-0.9-4.9-0.4-16.7,5c-1.1,0.5-4.1,1.8-6.6,3
	c-4.5,2-6.8,3.1-18.2,8.4c-7.2,3.3-26.2,10.8-33.3,13c-1.8,0.6-5.9,1.5-9.2,2c-10.4,1.8-18.1,0.8-20.8-2.7c-1.2-1.6-1.3-2.4-1.1-8.6
	c0.5-11,3.5-18.4,13.7-34.2c3.5-5.3,9-13,12.8-17.8c0.3-0.4,1.6-2,2.8-3.6c1.3-1.6,2.8-3.6,3.5-4.3c0.7-0.7,1.7-2.1,2.3-3
	c1.1-1.7,2.6-3.5,6.6-8c2.5-2.9,3.9-3.1,10.5-1.5c5.3,1.2,10.8,4.1,15,7.7c6.4,5.5,9.2,9.1,9.8,12.5c0.4,2.1,0.1,2.8-3.2,6.9
	c-2,2.5-4.3,5.5-5.2,6.6c-1.6,2.1-4.3,3-12,3.9c-1.8,0.2-6.9,1.1-11.2,2c-4.4,0.9-10.3,2-13.2,2.5c-7.8,1.4-14.8,3.7-14.8,4.8
	c0,1.2,0.6,1.2,5.2,0c4.5-1.2,5.6-1.4,15.6-3c4.4-0.7,11-1.9,14.8-2.6c3.8-0.7,9.8-1.8,13.2-2.3c14.3-2.2,31.9-5.8,39.3-8.1
	c4.5-1.4,9.6-1.3,11.9,0.2c5.5,3.4,7.5,4.8,11.2,7.9c2.2,1.8,4.7,4,5.6,4.9c2.2,2.1,8.3,6.2,11.5,7.9c10.9,5.5,14,7.6,19.9,13.7
	C484,751.7,484.5,752.5,483,752.5z"/>
<path class="st5" d="M564.1,88c1.2-7.5,1-22.6-0.4-30c-1.4-7.8-2.5-11.2-6.2-20.5c-2.5-6.1-12.6-18.8-15.2-18.8
	c-0.5,0-2.2-1-3.8-2.1c-2.3-1.6-3.9-2.2-7.4-2.6c-9.9-1.1-20.5-0.3-23.9,1.8c-0.5,0.3,0.2,1.1,2.2,2.3c1.6,1,3.2,2.2,3.4,2.6
	c0.6,1.1-0.1,1.6-1.2,0.8c-0.5-0.4-2.9-1.3-5.5-2.1c-2.5-0.8-5.2-1.7-5.9-2c-3.1-1.3-16.6-2.7-22.8-2.4c-6.3,0.4-14,2.1-17.2,3.8
	c-1.6,0.9-7.2,5.1-7.9,5.9c-0.8,1-5.8,3.8-6.2,3.5c-0.2-0.2,0.2-1.2,0.9-2.2c0.7-1,1.3-2,1.3-2.3c0-0.3-3.8-0.3-8.4-0.1
	c-6.8,0.3-9.4,0.7-13.4,2.2c-2.7,1-5.1,2-5.3,2.2s-1.5,1.2-3,2c-3.1,1.8-6.9,4.8-6.9,5.3c0,0.2,0.9,0.7,2,1.1
	c1.1,0.4,2.2,1.2,2.4,1.8c0.5,1.3-0.3,2.3-0.9,1.2c-1.1-1.8-17-3-20.6-1.6c-0.9,0.3-2.8,1-4.2,1.4c-1.5,0.4-3.7,1.7-5.1,2.7
	c-2.8,2.2-3.2,2.3-3.2,0.9c0-0.5,1-1.8,2.3-2.8c2.8-2.2,2.8-3.1,0.6-6.3c-2.6-3.8-6.2-5.4-12-5.2c-5.8,0.2-7.7,0.9-6.7,2.8
	c0.9,1.7-0.1,1.7-1.2,0c-0.5-0.7-1.3-1.3-1.8-1.3c-0.5,0-1.2-0.5-1.6-1.2c-0.4-0.7-2.8-2.1-5.5-3.1c-7-2.8-12.9-2.7-19.9,0.3
	c-2.8,1.2-5.3,2-5.5,1.8c-0.5-0.5,2.4-3.1,6.1-5.6c0.5-0.4,1-0.6,1.5-0.9c-0.5-0.3-1.1-0.7-1.6-1.1c-0.6-0.2-1.4-0.6-2.5-1.1
	c-8.6-4.1-15.1-7-15.8-7c-0.4,0-1.1-0.3-1.4-0.6c-1.2-1.1-8.4-2.8-18.1-4.2c-6.8-1-28.5-1-34,0c-16.2,3-24.5,5.9-29.9,10.6
	c-2,1.8-2.1,2-1.1,3c1.9,1.9,0.6,1.9-4.9,0c-5.1-1.8-5.5-1.8-10.6-1.1c-4.8,0.7-11.2,3.3-11.3,4.7c-0.1,1.1-3.4,2.8-4.7,2.4
	c-1.3-0.4-1.3-0.5-0.2-2.1c1.1-1.7,1.1-1.8-0.8-3.3c-5.5-4.5-17.9-8-26.7-7.5c-6.6,0.4-16.8,3.8-22.6,7.5c-1.7,1.1-3.3,1.9-3.5,1.7
	c-0.2-0.2,1.1-1.5,2.8-3l3.1-2.7l-3.2-1.5c-4.3-2-12.6-2.2-16.3-0.3c-2.3,1.1-2.4,1.3-1.5,2.3c0.9,1,0.8,1.1-1.5,0.8
	c-1.4-0.1-2.8-0.5-3.1-0.8c-0.4-0.3-2.7-1-5.3-1.7c-5-1.2-12.5-1.1-16.8,0.4c-3,1-3,1-1.8,2.4c0.9,1.1,3.2,6.9,3.2,8.2
	c0,0.3-0.3,0.5-0.7,0.5c-0.4,0-0.7-0.5-0.7-1.1c0-2.5-3.6-6.8-7.2-8.7c-3-1.5-4.4-1.8-8.9-1.8c-6.8,0-11.2,1.7-10.6,4.2
	c0.3,1.4,0.2,1.5-1.2,1.2c-1.3-0.3-2,0.1-3.8,2.3c-6,7.1-7.6,7.7-4.3,1.5c1.3-2.4,2.2-4.6,2-4.8c-0.9-0.9-10.1-0.3-13.8,0.8
	c-10.6,3.3-20.7,11.1-25.7,20c-1.9,3.3-4.8,12.6-5.7,18.1c-1,6.2-0.9,13.8,0.4,19.3c1.6,7.1,9.1,23.9,11.9,26.7c1,1,0.6,2.4-1.4,5.1
	c-0.8,1.1-2.6,4.2-4,6.9c-1.4,2.7-2.7,5.1-2.9,5.3c-1,0.7-4.6,7.9-5.9,11.5c-3.1,9.1-3.6,12.3-3.6,22.8c0,10.7,1,16.5,4.4,25.5
	c1.4,3.7,2.2,4.4,2.9,2.3c0.5-1.7,4.2-6.2,6.5-8c1.7-1.3,1.8-1.3,1.8-0.2c0,0.7-0.9,1.8-1.9,2.5c-2.2,1.5-3.9,4.3-6,9.8
	c-1.6,4.2-1.5,8.2,0.4,12.6c1.1,2.6,5.9,7.6,7.3,7.6c0.5,0,0.9,0.3,0.9,0.7c0,0.4-0.6,0.6-1.3,0.4c-1.4-0.4-4,2.5-4,4.4
	c0,0.6-0.3,1.2-0.7,1.4c-0.4,0.2-0.6,2.4-0.6,4.8c0,5.2,2.1,10.9,4.6,12.8c1.6,1.2,1.7,1.2,4.8-0.1c1.7-0.8,3.6-1.3,4.3-1.1
	c1.1,0.2,0.6,0.5-6.2,4.3c-2.3,1.3-7.2,8.6-8.8,13.3c-1.6,4.5-2,12-1,17.7c0.3,1.6,0.2,3.1-0.2,3.6c-1.3,1.6-2.7,8.1-2.4,11.6
	c0.3,4.7,3.8,9.6,5.2,7.3c0.5-0.9,5.6-4.1,6-3.8c0.1,0.1-0.9,1.4-2.4,2.7s-2.6,2.8-2.6,3.3c0,0.4-0.7,1.1-1.5,1.4
	c-2.3,1-7.7,11.2-9.4,17.8c-2.7,10.3-0.9,20.3,5.1,28c1.3,1.7,5.3,4,6.9,4c0.6,0,0.8,0.3,0.6,0.7c-0.2,0.4-1,0.5-1.6,0.3
	c-0.9-0.3-1.4,0.1-1.9,1.5c-1,2.8-1.5,6-0.9,6.4c0.3,0.2,0.4,1.7,0.2,3.3c-0.4,3.4,1,11.3,2.1,12.4c2.6,2.6,2.5,3.2-1.9,16.3
	l-2.4,6.9l1,6.7c0.6,4.2,2.4,10.9,4.7,17.8l3.7,11.1l-3.2,3c-1.8,1.7-4.3,4.2-5.6,5.7c-5.1,5.6-9.1,19.2-9.1,30.7
	c0,9.3,4,22.5,8.5,28.2l1.3,1.6l2.6-2.5c3-2.9,4.7-2.2,1.8,0.8c-2,2.1-2.2,3.8-0.6,4.2c0.7,0.2,0.5,0.3-0.6,0.4
	c-2.9,0.1-3.4,4.1-1.1,9.5c1.9,4.6,2.7,5.4,8.1,8.5l4.6,2.6l-3.2-0.4c-3.2-0.4-10.3-3.9-10.3-5.1c0-0.3-0.3-0.6-0.6-0.6
	c-0.8,0-2.1,5.2-2.1,8.4c0,4.3,1.2,7.3,3.8,9.4c1.3,1.1,2.9,2,3.6,2c0.6,0,1.3,0.3,1.6,0.8c0.5,0.8-1.4,0.5-4.5-0.7
	c-2-0.8-5.8-4.5-5.8-5.8c0-1.8-1.6-0.5-5.4,4.4c-3.7,4.9-5,8-6.5,15.5c-1.5,7.6,0.5,20.7,4.2,26.7c2.5,4.2,9,8.8,11.5,8.1
	c0.9-0.2,1.5-0.1,1.5,0.4c0,0.4,0.2,0.7,0.5,0.7c0.3,0,0.5-1.6,0.6-3.5c0.1-3.3,2.5-10.3,3.2-9.5c0.2,0.2-0.2,2.2-1,4.4
	c-1.7,5-1.7,7.8-0.1,11.4c1.3,3.1,3,4.9,5,5.4c0.9,0.2,0.6,0.3-0.8,0.4c-2.4,0.1-5.1-2.6-5.8-5.9c-1-4.3-3.3,0.1-2.6,4.9
	c0.5,3.2,2.6,6.2,5.1,7.3c1.9,0.8,2,0.7,7.1-4.4c2.8-2.8,5.5-5.2,6-5.2c0.4,0-0.8,1.6-2.8,3.6c-3.6,3.6-7.8,10.5-7.8,12.7
	c0,0.6-0.4,1.5-0.8,2c-0.5,0.5-0.8,3.5-0.8,9.5c0,10.3,1.1,15.1,4.9,20.8c2.7,4.1,6.9,8.7,7.9,8.7c0.4,0,0.7,0.3,0.7,0.8
	c0,0.4,0.5,1.2,1.1,1.7c1.1,0.9,1,0.9-0.6,0.6c-1.6-0.3-1.9-0.1-2.6,2.1c-0.4,1.4-0.8,3.9-0.8,5.6c0,2.7,0.3,3.5,2.1,5.3l2.1,2.1
	l2.9-2.8c3-3,4.8-3.2,2-0.2c-2.6,2.8-6.1,8.4-7.3,11.5c-1.1,2.9-0.9,10.4,0.2,12c0.3,0.4,0.9,1.9,1.4,3.4
	c1.9,5.7,7.8,12.7,12.9,15.3c5.6,2.9,8.6,3.5,15.2,3.5c6.7,0,11.1-1,14.8-3.2c5.3-3.2,8.6-5.6,9.2-6.6c0.4-0.6,0.7-0.8,0.7-0.3
	s-0.7,1.4-1.5,2.2l-1.5,1.4l2.3,1.9c2.7,2.2,4.5,2.1,9-0.5c2.1-1.2,2.8-2.1,3.2-3.9c0.6-3,1.7-3,1.7-0.1c0,2.6,2.4,5.8,5.4,7.4
	c1.9,1,2,1,2.7-1c0.9-2.3,2.2-2.8,1.4-0.5c-1.2,3.6-1.1,8.3,0.2,11.3c1.7,3.8,6.1,9.8,8.5,11.5c2.5,1.8,7,3.8,11.7,5.1
	c5.6,1.6,16.2,1,22.3-1.2c4.1-1.5,16.4-8.6,16.9-9.8c0.1-0.3,0.6-0.5,1.2-0.5c0.5,0,0.9-0.3,0.9-0.6c0-0.3,1.5-1.5,3.3-2.7
	c1.8-1.2,3.6-2.7,4-3.5c0.7-1.3,0.8-1.2,2.5,0.7c2.6,2.8,4.8,3.8,11.6,5c6.8,1.2,16.4,0.7,21.5-1.2c1.6-0.6,3.5-1.2,4.2-1.5
	c0.7-0.2,3.7-1.6,6.6-3.2c6.1-3.2,11.8-8.5,16.1-14.8c1.6-2.4,3.1-4.4,3.5-4.5c0.3-0.1,0.6-0.7,0.6-1.3c0-0.6,0.5-1.7,1-2.4
	c0.5-0.7,1-1.8,1-2.5s0.4-1.2,1-1.2c0.6,0,0.8,0.4,0.6,0.9c-0.4,1.1,2.1,3.6,4.2,4.1c1.4,0.3,5.8,0.1,8.1-0.5
	c0.6-0.1,2.1-0.9,3.5-1.7c2.2-1.3,2.5-1.7,2.1-3.5c-0.3-1.8-0.3-1.9,0.8-1.3c0.7,0.4,1.4,1.1,1.6,1.6c0.5,1.3,7.6,3.9,9,3.3
	c0.6-0.2,1.5-0.4,2.1-0.3c0.6,0.1,2.2-0.6,3.5-1.6c1.4-0.9,2.7-1.5,2.9-1.3c0.7,0.7-2,3-4.1,3.6c-1.8,0.5-2,0.8-1.8,2.5
	c0.3,3.2,3.1,8.4,5.7,10.9c5,4.8,12.8,7.8,20.5,7.8h4.1l3.5-4.8c1.9-2.6,5-6.6,6.8-8.8c1.8-2.2,6.2-7.5,9.8-11.9
	c3.5-4.4,7.5-9,8.7-10.2c1.3-1.2,2.3-2.6,2.3-3c0-0.4-0.8-4.1-1.6-8.2c-2.9-13.2-1.9-18.9,4.3-25.1c3.4-3.4,12.7-9.2,14.7-9.2
	c4,0,5.8-10,3.3-18.5c-1.2-4-2.7-6.2-4-5.7c-0.5,0.2-0.7,0-0.5-0.6c0.5-1.4-2.8-4-6.8-5.2c-1.9-0.6-3.8-1.5-4.2-2.1
	c-1-1.2-0.9-1.2,4.1,0.1c2.3,0.6,5.4,2.1,7,3.3c1.6,1.2,3.2,2,3.6,1.7c4.3-2.6,8.1-7.4,11.2-14.4c2.3-5.2,2.1-10.5-0.5-14.7
	c-0.9-1.5-1.4-2.8-1.1-2.8c1.2,0,4.6,6.2,4.6,8.4c0,2.6,0.4,2.7,2.5,0.4c2-2.2,2.8-4.3,2.8-7.2c0-2-0.3-2.4-3.1-3.6
	c-3.1-1.4-6.1-3.7-6.1-4.7c0-0.3,1.5,0.4,3.3,1.6c2.9,1.8,4.1,2.1,9,2.4c3.2,0.2,7.2-0.1,9.4-0.5c4.2-0.9,12.1-4.5,14.8-6.8
	c1.7-1.4,1.8-1.7,1.1-3.7c-2-5.9,3.8-12.1,9.8-10.5c2,0.5,4.7,3.9,4.3,5.3c-0.2,0.7,7.8,0.6,10.6-0.2c3.7-1,9.6-5.2,13.8-9.8
	c3.7-4,7.8-11.4,7.8-14.1c0-0.8,0.3-1.9,0.7-2.5c0.5-0.7,0.6,0.2,0.3,3.1l-0.4,4l2.5,1.9c2.2,1.7,3,1.9,7.8,1.9
	c4.7,0,5.8-0.2,8.8-1.9c6.5-3.6,11.5-10.8,14.3-20.3c2.3-8,2-2-0.4,7.5c-0.7,2.8-1.3,5.2-1.3,5.3c0,0.5,9.2-0.7,13.3-1.8
	c9.2-2.3,18.5-8.5,22.1-14.8c1-1.7,2.6-4.4,3.6-6.1c3.6-5.7,4.5-11.4,3.5-20.7c-0.9-8-3.4-12.8-9-17.2c-3.2-2.5-9.4-4-13.4-3.2
	c-1.6,0.3-2.3,0.2-2.3-0.4c0-1.1,2-2.6,3.4-2.6c0.7,0,1.4-1,1.9-2.5c1.5-4.4,0.5-9.4-1.8-9.4c-0.7,0-0.9-0.4-0.6-1
	c0.2-0.6,0.4-1.3,0.4-1.6c0-0.3,0.5-0.6,1.1-0.6c1.6,0,12-5,14.2-6.9c1.1-0.9,1.8-1.7,1.6-1.7c-0.2,0,0.2-0.7,1-1.5
	c3.8-4,7.1-13.3,7.7-22c0.7-10-1.5-16.2-7.6-21.2c-1.9-1.5-5-3.3-7-3.9c-2-0.6-3.6-1.3-3.6-1.5c0-0.2,1.9-1.7,4.2-3.3
	c4.1-3,14.2-13.4,16-16.5c3.5-6.2,7.6-15.6,8.5-19.6c1.2-5.4,1.4-15.7,0.4-19.7c-1.3-4.9-5.5-12.4-8.8-15.5
	c-3.8-3.7-10.2-6.1-12.4-4.7c-1.5,0.9-1.9,1-1.9,0.2c0-0.3,2.2-2.3,4.9-4.4c8.4-6.6,14.4-17.4,16.5-30c2.4-14,0.6-23.9-5.2-29
	c-2.5-2.2-3.7-2.6-3.7-1.4c0,0.4-0.3,0.5-0.7,0.3c-0.4-0.2-0.5-0.7-0.2-1.1c0.3-0.4-0.5-0.6-2.1-0.5c-3.5,0.3-3.6-1.1-0.1-1.8
	l2.8-0.6l0-3.1c0-2-0.5-3.6-1.3-4.5c-1.3-1.4-3.3-1.8-4-0.7c-0.2,0.4-0.7,0.7-1,0.7c-1,0-0.7-1.2,0.7-2.6c6-6,5.9-19.4-0.3-25.1
	c-1.8-1.6-3-1.8-8.8-1.2c-0.9,0.1-1.7-0.1-1.8-0.6c-0.2-0.5,1.7-1.1,4.7-1.6c5.7-1,6.5-1.7,9.5-7.5c1.7-3.2,2-4.7,2-8.1
	c0-3.6-0.2-4.5-1.6-5.9c-0.9-0.9-2.2-1.6-2.9-1.6c-1.8,0-3.4-0.7-3.4-1.4c0-0.3,0.9-0.6,1.9-0.6c1.3,0,2.2-0.5,3-1.7
	c3.2-4.9,6-17.6,3.3-15.4c-1.6,1.3-2,0.1-0.4-1.4c1.5-1.4,1.3-2.6-0.9-5.2c-1.1-1.3-1.9-4-1.2-3.9c0.3,0,1.3,1,2.2,2.3
	c0.9,1.2,1.8,2.3,2,2.3c0.9,0,2-5.3,2.4-11.2c0.4-6.1,0.3-6.3-1.3-7.8l-1.7-1.5l-2.8,4c-1.6,2.2-3.2,4-3.7,4c-1,0-1.3,0.7,3.3-8.6
	C557.2,117.4,561.7,103.4,564.1,88z M399,540.9c-3.7,3.5-4.5,3.9-7.7,3.3c-2-0.4-6.7-4.5-7.9-7c-1.6-3.1-0.2-8,3.5-12.3
	c3-3.5,5.6-4.7,10.2-4.7c3.3,0,5.2,1,7,3.5C407.3,528.4,405.5,534.7,399,540.9z M426.5,548.2c-2.4,3.7-10.2,6.7-13.6,5.2
	c-1.7-0.7-3.3-2.9-4-5.6c-1.1-4.2,0.7-8.6,4.9-12c2.3-1.9,3.4-2.3,5.7-2.3c3.5,0,6.8,2,7.9,4.6C428.4,540.4,427.9,546.1,426.5,548.2
	z"/>
<path d="M439.2,641c0,0.4,0.4,0.5,1.2,0.2c0.6-0.3,4.6-0.6,8.9-0.8c4.3-0.1,7.8-0.5,7.8-0.8c0-0.6-7.5-1.6-11.3-1.5
	C443.2,638.2,439.2,639.9,439.2,641z"/>
<path d="M427.4,538c-1.1-2.7-4.4-4.6-7.9-4.6c-2.2,0-3.4,0.5-5.7,2.3c-4.2,3.4-6,7.9-4.9,12c0.7,2.7,2.3,4.9,4,5.6
	c3.5,1.5,11.2-1.5,13.6-5.2C427.9,546.1,428.4,540.4,427.4,538z M426.1,544.4c-0.7,2.6-2.5,4.7-5.1,6c-3.4,1.8-7.5,0.5-9-2.8
	c-1.5-3.2-1.4-5.7,0.6-8.5C418.1,530.9,428.6,535,426.1,544.4z"/>
<path d="M474.1,648.4c-0.5-1.1-2-2.4-3.5-3.1c-3-1.4-8.9-2.2-8.9-1.2c0,0.4,1.4,0.8,3.1,1c5.6,0.5,9.9,3.7,7.2,5.4
	c-0.7,0.4-1.7,1.1-2.3,1.6c-1,0.7-0.9,0.8,0.8,0.8c1,0,2.4-0.6,3.2-1.2C474.9,650.4,474.9,650.1,474.1,648.4z"/>
<path d="M444.2,635.5c1.4,0,2-0.3,1.5-0.6c-1.1-0.7-3.8-0.7-3.8,0C441.9,635.3,442.9,635.5,444.2,635.5z"/>
<path d="M486.1,655.5c0.2,0,1.7,1.2,3.3,2.6c1.6,1.5,3,2.6,3.1,2.6c0.2,0,1.3-0.4,2.6-1c2.8-1.2,3-2.3,0.3-2.3c-1.1,0-2-0.4-2-0.8
	c0-0.5-1.4-1.7-3.1-2.8c-1.9-1.3-3.6-3-4.4-4.8c-1.5-3-2.5-3.3-2.9-0.6C482.7,650,485.2,655.5,486.1,655.5z"/>
<path d="M480.4,639.5c1.5-1.1,3.4-1.6,7-1.9c4.6-0.4,4.9-0.7,1.6-1.6c-2.1-0.6-12.8,3.3-12.8,4.7
	C476.2,641.4,478.5,640.8,480.4,639.5z"/>
<path d="M490.6,583c-0.9,1.2-2.4,3-3.4,4.2c-2.3,2.7-5.4,10-6.5,15.2c-1,5-0.6,13.5,0.6,15c0.5,0.6,1.2,1.1,1.6,1.1
	c0.4,0,0.2-0.6-0.5-1.3c-1-1.2-1.1-2.1-0.8-8.4c0.6-9.8,3-15.6,9.6-23.6c1.3-1.5,2-3.5,1.5-3.9C492.5,581.1,491.5,581.9,490.6,583z"
	/>
<path d="M488,581.7c-3.7,4-8.4,10.8-9.8,14.3c-2,5.1-2.4,12-1.1,18.1c0.6,2.8,1.4,5.1,1.8,5.1c0.4,0,0.5-0.4,0.3-1
	c-1.1-3-1.9-9.8-1.5-14.2c0.5-6,3.5-12.8,7.8-17.5C489.9,581.7,492,577.4,488,581.7z"/>
<path d="M430.5,593.2c1.9-1.7,3.2-3.1,2.9-3.1c-0.9,0-9,7-11.1,9.7c-1.1,1.4-4.5,5.2-7.4,8.4c-2.9,3.2-5.3,6.1-5.3,6.4
	c0,0.3,0.3,0.6,0.7,0.6c0.4,0,0.7-0.2,0.7-0.5C410.9,613.5,424.8,598.3,430.5,593.2z"/>
<path d="M413.9,618.8c-1.2,2,6.5-5.7,9.3-9.3c0.8-1,4.4-4.9,7.9-8.5c9.1-9.3,4.4-5.6-6.5,5.1C419.1,611.7,416.2,615.1,413.9,618.8z"
	/>
<path d="M446.7,581.7c6-5.2,2.1-2.8-5.2,3.2c-2.3,1.9-11.8,11.4-14.2,14.3c-3.3,4-9.6,11.1-10.6,12.1c-2.2,2.2-5.9,7.1-5.9,7.6
	c0,0.7-0.1,0.8,8.4-9C426.3,601.8,441.5,586.2,446.7,581.7z"/>
<path d="M446.5,714.2c-0.3,0.9-0.5,2.1-0.5,2.6c0,0.6,0.2,0.5,0.5-0.3c0.3-0.7,0.5-1.9,0.5-2.6C447,712.8,446.9,712.9,446.5,714.2z"
	/>
<path d="M511.7,643.2c3.7-1.2,8.3-4.3,10.9-7.1c1-1.1,1.8-2.1,1.8-2.2c0-0.5-1.7,0.8-2.8,2.2c-0.6,0.8-3.4,2.5-6.3,3.9
	c-4,2-6.2,2.6-9.9,2.8c-2.6,0.2-4.8,0.6-4.8,0.9C500.6,644.7,508.3,644.3,511.7,643.2z"/>
<path d="M497,632.4c-2,0.9-3.7,1.8-3.7,2c0,0.9,4.2-0.3,7-1.9c1.5-0.9,3.9-3,5.3-4.7c1.4-1.7,2.9-3.5,3.3-4c0.4-0.5,0.8-1.2,0.8-1.5
	c0-0.3,0.6-1.4,1.3-2.4c0.7-1,1.6-3.8,2-6.3c0.6-3.9,0.6-5.1-0.4-8.1c-0.6-2-1.2-3.4-1.4-3.3c-0.2,0.2,0.1,1.4,0.5,2.7
	C514.5,613,506.1,628.5,497,632.4z"/>
<path d="M437.9,685.9c4.7,3.2,8.6,12,9.1,20.5c0.2,2.8,0.5,5.1,0.7,5.1s0.2-2.8,0-6.1c-0.6-9.1-4.7-17.7-10.1-20.9
	C434.5,682.8,434.7,683.7,437.9,685.9z"/>
<path d="M496.2,652.4c-1.2,1.1-2.1,2.2-2.1,2.5c0,1.2,1.5,0.4,4.3-2.3c2-1.9,2.9-3.3,2.9-4.5l0-1.6l-1.5,2
	C499,649.6,497.3,651.4,496.2,652.4z"/>
<path d="M520.4,616c0,4.4-7,13.2-13.9,17.5c-2.1,1.3-3.9,2.5-3.9,2.7c0,0.2,0.5,0.1,1-0.1c0.6-0.2,1.3-0.4,1.6-0.4
	c0.7,0,9.2-6.4,10.8-8.2c3.6-4,6.6-11.6,4.9-12.6C520.7,614.6,520.4,615.2,520.4,616z"/>
<path d="M528.2,616.2l-0.7,1.7c-3.7,8.6-5.2,10.5-11.7,14.7c-4.2,2.8-9.5,5.1-11.7,5.1c-0.5,0-1,0.3-1,0.6c0,0.6,1.5,0.6,6.2-0.3
	c2.8-0.5,10-5.6,13.5-9.5c2.7-3,5.5-8.4,5.4-10.6L528.2,616.2z"/>
<path class="st5" d="M27.8,512.9c-0.5,0.6-1.1,1.8-1.4,2.8c-0.5,2.1-1.3,2.2-3.6,0.7c-8.9-5.8-15.2-20.3-15.4-35.5
	c-0.1-5.6,2.2-15.1,4.8-20.6c0.7-1.5,1.3-3.1,1.3-3.5c0-1.8,7.2-14.1,7.2-12.3c0,0.3-0.8,3.1-1.7,6.2c-3.6,11.7-3.2,23.3,1.1,35.2
	c1.8,4.8,4.1,8.8,6.3,10.5c1.4,1.1,1.6,1.7,1.3,3.2c-1,4.1-1,5.9-0.1,9.1C28.6,511.4,28.6,512,27.8,512.9z"/>
<path class="st5" d="M438.1,557c-2.4,2.8-5.2,3.3-7.6,1.4c-2.5-2-2.5-5.8-0.1-8.2c2-2,6.8-2.4,8.2-0.7
	C440.3,551.6,440,554.8,438.1,557z"/>
<path class="st5" d="M426.1,544.4c-0.7,2.6-2.5,4.7-5.1,6c-3.4,1.8-7.5,0.5-9-2.8c-1.5-3.2-1.4-5.7,0.6-8.5
	C418.1,530.9,428.6,535,426.1,544.4z"/>
<path class="st5" d="M402.4,532.9c-1.3,3-5.7,7.4-8.4,8.4c-2.3,0.9-3.2,0.7-5.9-1.3c-4-2.9-3.8-7.5,0.7-13.5
	c2.8-3.8,3.3-4.1,7.5-4.2c4.5-0.1,5.8,0.9,6.8,5.2C403.5,529.6,403.4,530.7,402.4,532.9z"/>
<path class="st5" d="M123.7,709l-0.7,2.7c-0.5,1.8-1.2,2.9-2.2,3.2c-2.8,1.1-9.1,1.3-12.2,0.4c-9-2.6-14.2-8.3-10.2-11.2
	c1.6-1.2,1.7-1.2,3.7,0.5c1.2,1,2.8,1.7,4,1.7c2.2,0,6.5-2,7.8-3.6c0.8-1,1-0.9,1.6,0.4c0.4,0.8,2.4,2.5,4.4,3.7L123.7,709z"/>
<path class="st5" d="M558.7,177.6c-1.5,1.5-3.1,2.8-3.5,2.7c-0.4,0-1.5-0.9-2.4-2c-0.8-1.1-2-1.9-2.5-1.9c-1,0-1.3-1-0.4-1.6
	c0.3-0.2,1.7-2.1,3.1-4.1c2.2-3.2,2.5-4.4,2.8-8.5c0.2-2.6,0-5.3-0.4-6c-0.9-1.6,1-5.6,2.6-5.6c1.8,0,5.7,5.2,6.6,8.8
	C566.1,165.2,563.7,172.4,558.7,177.6z"/>
<path class="st5" d="M104.6,16.3c-0.8,0.5-2.1,0.1-4.9-1.3c-3.3-1.6-4.6-1.9-9.1-1.9c-5.4,0-10.2,1.5-12.7,3.9
	c-0.7,0.7-1.6,0.9-2.8,0.7c-1-0.2-4.1-0.6-7-0.8c-4.6-0.3-6.2-0.1-11.7,1.6c-3.5,1.1-8.1,2.9-10.1,4.2c-10,6-18.7,17.9-21.2,28.8
	c-1.5,6.8-2,24-0.7,28.6c1.3,4.5,2.7,8.6,4.4,12.3c0.7,1.5,1.3,3,1.3,3.2c0,0.2,1.6,3.2,3.6,6.7c2,3.5,3.6,6.5,3.6,6.7
	c0,0.2-0.7,1.3-1.6,2.3c-2.1,2.4-3.5,2.3-6.3-0.6c-1.3-1.3-2.8-2.6-3.4-2.9c-1.7-0.9-7-8.7-9.8-14.3c-8.2-16.5-7.1-35.9,3.2-57.5
	c3.9-8.1,6.8-12.3,13.3-18.9c3.4-3.5,5-4.5,11.9-7.5c7.8-3.4,8.1-3.5,16-3.8C70.8,5.2,81.5,6.9,93,10.8c4.3,1.5,9.1,2.8,10.5,3.1
	C106.1,14.3,106.5,15.1,104.6,16.3z"/>
<path class="st5" d="M35.4,236.3c0,0.3-1.1,1.5-2.5,2.6c-5,4-8.5,13.6-7.8,21.3c0.2,2.4,0.9,5.6,1.5,7.3c1,2.8,1,3.1-0.4,5.4
	c-0.8,1.4-1.5,2.5-1.7,2.5c-0.1,0-1.6-1.8-3.2-4.1C17,265.6,14,256,12.9,245c-1.2-12.7-0.7-18.6,2.4-28.9c1.8-5.7,4.5-10.7,8.4-15.5
	c2.2-2.7,3-3.1,3-1.5c0,1.7,2.7,6.2,5.1,8.5l2.3,2.3l-1.3,1.3c-2.7,2.7-3.5,4.7-3.9,9.6c-0.5,6.1,0.8,9.9,4.2,12.9
	C34.4,234.9,35.4,236,35.4,236.3z"/>
<path class="st5" d="M29.2,346.4c-0.5,1-1,2.4-1,3c0,1.8-1.1,1.4-4.4-1.6c-6.7-6.2-10.5-14.8-11.2-25.1c-0.4-6.1-0.2-7.4,1.6-14.7
	c2.3-8.9,4-13,7.7-18.4c2.3-3.3,3.7-4.1,3.7-2.2c0,0.4,0.8,1.7,1.7,2.9l1.7,2.2l-3.3,4.4c-7.2,9.6-9.6,24.4-5.6,34.5
	c2.1,5.4,6.2,10.7,8.8,11.5C30.4,343.5,30.4,343.9,29.2,346.4z"/>
</svg>
